<svg xmlns="http://www.w3.org/2000/svg" width="118.065" height="38.982" viewBox="0 0 118.065 38.982">
  <g id="그룹_482" data-name="그룹 482" transform="translate(-334.451 -277.693)">
    <path id="패스_34" data-name="패스 34" d="M355.876,301.994H360.3a.424.424,0,0,0,.424-.425V283.954a.424.424,0,0,0-.424-.424h-9.789a.422.422,0,0,0-.259.089,4.112,4.112,0,0,1-2.25.973c-.05,0-.1,0-.151-.006a1.543,1.543,0,0,1-1.14-.654l-.3-.4h-9.279a.424.424,0,0,0-.424.424v4.079a.425.425,0,0,0,.424.425h17.9a.424.424,0,0,1,.424.424v3.549a.424.424,0,0,1-.424.424h-17.9a.424.424,0,0,0-.424.424v4.048a.425.425,0,0,0,.424.424h17.9a.424.424,0,0,1,.424.424v3.393A.424.424,0,0,0,355.876,301.994Z" transform="translate(-0.79 -2.045)" fill="#f2f1f1"/>
    <rect id="사각형_254" data-name="사각형 254" width="26.947" height="4.928" rx="0.653" transform="translate(334.451 301.263)" fill="#f2f1f1"/>
    <path id="패스_35" data-name="패스 35" d="M352.022,281.057a1.216,1.216,0,0,0,.906.525,3.312,3.312,0,0,0,1.941-.732c.208-.146.383-.284.5-.38l-2.737-1.877a.931.931,0,0,0-1.275.213h0a1.135,1.135,0,0,0,0,1.356l.513.688Z" transform="translate(-5.842 -0.258)" fill="#f2f1f1"/>
    <path id="패스_36" data-name="패스 36" d="M465.3,277.755c-1.784.711-4.443,2.04-2.054,2.908,2.072.752,2.882-.68,3.2-1.909A.854.854,0,0,0,465.3,277.755Z" transform="translate(-44.686)" fill="#f2f1f1"/>
    <path id="패스_37" data-name="패스 37" d="M399.225,307.736l.33-3.151a.42.42,0,0,0-.5-.459,20.3,20.3,0,0,1-5.64.1l-5.719-.6a.424.424,0,0,1-.378-.466l.133-1.266a.424.424,0,0,1,.466-.378l9.269.97a.424.424,0,0,0,.466-.378l.957-9.144a.424.424,0,0,0-.378-.466l-14.51-1.518a.424.424,0,0,0-.466.378l-.34,3.25a.425.425,0,0,0,.378.466l9.33.977a.423.423,0,0,1,.377.466l-.129,1.234a.424.424,0,0,1-.467.377l-9.268-.969a.424.424,0,0,0-.466.377l-.96,9.175a.424.424,0,0,0,.377.466l10.683,1.117a19.378,19.378,0,0,0,6.149-.19A.417.417,0,0,0,399.225,307.736Z" transform="translate(-16.512 -4.861)" fill="#f2f1f1"/>
    <path id="패스_38" data-name="패스 38" d="M411.525,298.194l-2.444-.256a.424.424,0,0,0-.466.378l-.425,4.057a.425.425,0,0,0,.378.467l2.444.255a.425.425,0,0,1,.377.466l-.98,9.361a.425.425,0,0,0,.378.467l4.4.46a.424.424,0,0,0,.466-.377l1.973-18.853a.425.425,0,0,0-.378-.466l-4.4-.46a.425.425,0,0,0-.467.378l-.392,3.746A.425.425,0,0,1,411.525,298.194Z" transform="translate(-25.77 -5.89)" fill="#f2f1f1"/>
    <path id="패스_39" data-name="패스 39" d="M393.852,334.816a.728.728,0,0,0-1-.22c-.176.114-.358.242-.528.376-.437.345-.795.735-.765,1.068.025.282.346.516.954.694,1.791.525,2.4.377,2.6.242a.249.249,0,0,0,.087-.091l-1.159-1.78Z" transform="translate(-19.96 -20.427)" fill="#f2f1f1"/>
    <path id="패스_40" data-name="패스 40" d="M439.608,292.066h5.073a.424.424,0,0,0,.424-.424v-4.016a.424.424,0,0,0-.424-.424H439.7a.425.425,0,0,1-.424-.425V284.35a.424.424,0,0,0-.424-.424H434.3a.425.425,0,0,0-.425.424v2.426a.424.424,0,0,1-.424.425h-5.3a.424.424,0,0,0-.424.424v4.016a.424.424,0,0,0,.424.424h5.3a.429.429,0,0,1,.427.454c-.417,6.492-2.826,11.038-6.379,11.659a.426.426,0,0,0-.363.416v4.369a.428.428,0,0,0,.443.429c3.682-.194,6.818-2.449,8.925-6.332a.424.424,0,0,1,.706-.07l4.838,6.068a.424.424,0,0,0,.611.055l3.282-2.865a.425.425,0,0,0,.045-.593l-7.214-8.575a.413.413,0,0,1-.092-.343,37.185,37.185,0,0,0,.5-4.273A.424.424,0,0,1,439.608,292.066Z" transform="translate(-32.387 -2.183)" fill="#f2f1f1"/>
    <path id="패스_41" data-name="패스 41" d="M462.991,285.158a2.348,2.348,0,0,1,.041-.408h-3.141a.424.424,0,0,0-.424.424V310.96a.424.424,0,0,0,.424.424h4.422a.425.425,0,0,0,.424-.424V287.728a.441.441,0,0,0-.288-.4A2.344,2.344,0,0,1,462.991,285.158Z" transform="translate(-43.695 -2.472)" fill="#f2f1f1"/>
    <path id="패스_42" data-name="패스 42" d="M388.173,324.074l.221-2.854a.425.425,0,0,0-.39-.455l-4.5-.348a.424.424,0,0,0-.456.39l-.579,7.487a.424.424,0,0,0,.39.455l5.437.42a.424.424,0,0,0,.306-.1A9.731,9.731,0,0,1,390.244,328c.085-.03.248-.064.331.065l.767,1.179a.425.425,0,0,0,.323.192l14.475,1.119a.424.424,0,0,0,.455-.39l.293-3.787a.424.424,0,0,0-.39-.455l-17.935-1.387A.424.424,0,0,1,388.173,324.074Z" transform="translate(-16.774 -15.5)" fill="#f2f1f1"/>
    <g id="그룹_70" data-name="그룹 70" transform="translate(425.305 281.579)">
      <path id="패스_43" data-name="패스 43" d="M501.988,318.278l-18.37.487a.425.425,0,0,1-.436-.413l-.1-3.7a.425.425,0,0,0-.436-.413l-4.624.122a.425.425,0,0,0-.413.435l.226,8.538a.425.425,0,0,0,.435.413l23.843-.632a.425.425,0,0,0,.413-.435l-.106-3.988A.424.424,0,0,0,501.988,318.278Z" transform="translate(-475.318 -294.38)" fill="#f2f1f1"/>
      <rect id="사각형_255" data-name="사각형 255" width="5.379" height="20.117" rx="0.653" transform="translate(19.773 0.19) rotate(-2.024)" fill="#f2f1f1"/>
      <path id="패스_44" data-name="패스 44" d="M498.361,309.337l1.526.144a.424.424,0,0,0,.462-.383l.1-1.074a.61.61,0,0,0-.758-.652,2.689,2.689,0,0,0-1.679,1.366A.422.422,0,0,0,498.361,309.337Z" transform="translate(-482.45 -291.968)" fill="#f2f1f1"/>
      <path id="패스_45" data-name="패스 45" d="M488.222,301.468a3.235,3.235,0,0,1,2.617-2.667.572.572,0,0,0,.437-.627c0-.021,0-.038,0-.059l-.023-12.31a.423.423,0,0,0-.425-.424l-4.5.008a.425.425,0,0,0-.424.426l0,2.65a.424.424,0,0,1-.423.425l-5.631.01a.425.425,0,0,1-.426-.424l0-2.65A.425.425,0,0,0,479,285.4l-4.5.008a.425.425,0,0,0-.424.425l.029,15.319a.425.425,0,0,0,.425.424l13.673-.025Zm-8.756-4.819v-2.716a.425.425,0,0,1,.424-.425l5.518,0a.424.424,0,0,1,.424.424l0,2.716a.424.424,0,0,1-.424.424l-5.517,0A.425.425,0,0,1,479.466,296.649Z" transform="translate(-474.082 -284.272)" fill="#f2f1f1"/>
    </g>
  </g>
</svg>
