<svg xmlns="http://www.w3.org/2000/svg" width="133.265" height="44" viewBox="0 0 133.265 44">
  <g id="그룹_71" data-name="그룹 71" transform="translate(-334.451 -277.693)">
    <path id="패스_34" data-name="패스 34" d="M358.343,304.371h4.991a.479.479,0,0,0,.479-.48V284.009a.479.479,0,0,0-.479-.479H352.285a.476.476,0,0,0-.293.1,4.641,4.641,0,0,1-2.54,1.1c-.056,0-.114,0-.17-.007a1.742,1.742,0,0,1-1.286-.738l-.337-.453H337.186a.479.479,0,0,0-.479.479v4.6a.48.48,0,0,0,.479.48h20.2a.479.479,0,0,1,.479.479v4.006a.479.479,0,0,1-.479.479h-20.2a.479.479,0,0,0-.479.479V299.1a.479.479,0,0,0,.479.479h20.2a.479.479,0,0,1,.479.479v3.83A.479.479,0,0,0,358.343,304.371Z" transform="translate(-0.602 -1.556)" fill="#3d2520"/>
    <rect id="사각형_254" data-name="사각형 254" width="30.416" height="5.562" rx="0.653" transform="translate(334.451 304.298)" fill="#3d2520"/>
    <path id="패스_35" data-name="패스 35" d="M352.137,281.4a1.373,1.373,0,0,0,1.023.593,3.739,3.739,0,0,0,2.19-.827c.235-.164.432-.32.56-.429l-3.089-2.119a1.051,1.051,0,0,0-1.439.241h0a1.282,1.282,0,0,0,0,1.53l.579.777Z" transform="translate(-4.447 -0.196)" fill="#3d2520"/>
    <path id="패스_36" data-name="패스 36" d="M465.688,277.763c-2.014.8-5.015,2.3-2.319,3.282,2.339.849,3.253-.767,3.61-2.155A.964.964,0,0,0,465.688,277.763Z" transform="translate(-33.979 0)" fill="#3d2520"/>
    <path id="패스_37" data-name="패스 37" d="M401.48,309.894l.372-3.557a.474.474,0,0,0-.564-.518,22.907,22.907,0,0,1-6.366.108l-6.456-.675a.478.478,0,0,1-.427-.526l.15-1.429a.479.479,0,0,1,.526-.427l10.462,1.095a.478.478,0,0,0,.526-.427l1.08-10.321a.478.478,0,0,0-.427-.526l-16.378-1.714a.478.478,0,0,0-.526.426l-.384,3.669a.48.48,0,0,0,.427.527l10.532,1.1a.478.478,0,0,1,.426.526l-.145,1.393a.479.479,0,0,1-.527.426l-10.461-1.094a.479.479,0,0,0-.527.426l-1.083,10.356a.479.479,0,0,0,.426.527l12.058,1.261a21.871,21.871,0,0,0,6.941-.215A.471.471,0,0,0,401.48,309.894Z" transform="translate(-12.554 -3.777)" fill="#3d2520"/>
    <path id="패스_38" data-name="패스 38" d="M411.954,298.774l-2.759-.289a.479.479,0,0,0-.526.427l-.48,4.579a.48.48,0,0,0,.427.527l2.759.288a.479.479,0,0,1,.426.527L410.7,315.4a.48.48,0,0,0,.427.527l4.965.519a.478.478,0,0,0,.526-.426l2.227-21.28a.48.48,0,0,0-.427-.527l-4.964-.519a.479.479,0,0,0-.527.427l-.442,4.228A.48.48,0,0,1,411.954,298.774Z" transform="translate(-19.595 -4.589)" fill="#3d2520"/>
    <path id="패스_39" data-name="패스 39" d="M394.147,334.859a.821.821,0,0,0-1.131-.249c-.2.129-.4.273-.6.424-.494.389-.9.83-.863,1.206.029.318.391.582,1.077.783,2.022.593,2.707.425,2.935.273a.282.282,0,0,0,.1-.1l-1.308-2.009Z" transform="translate(-15.178 -15.746)" fill="#3d2520"/>
    <path id="패스_40" data-name="패스 40" d="M441.213,293.114h5.726a.479.479,0,0,0,.479-.479V288.1a.479.479,0,0,0-.479-.479h-5.625a.48.48,0,0,1-.479-.48V284.4a.479.479,0,0,0-.479-.479h-5.132a.479.479,0,0,0-.48.479v2.738a.479.479,0,0,1-.479.48h-5.977a.479.479,0,0,0-.479.479v4.534a.479.479,0,0,0,.479.479h5.98a.484.484,0,0,1,.482.513c-.471,7.328-3.189,12.46-7.2,13.161a.481.481,0,0,0-.41.469v4.931a.483.483,0,0,0,.5.485c4.156-.219,7.7-2.765,10.074-7.147a.478.478,0,0,1,.8-.079l5.461,6.849a.479.479,0,0,0,.689.062l3.7-3.233a.48.48,0,0,0,.051-.67l-8.143-9.679a.466.466,0,0,1-.1-.387,41.985,41.985,0,0,0,.568-4.823A.478.478,0,0,1,441.213,293.114Z" transform="translate(-24.623 -1.662)" fill="#3d2520"/>
    <path id="패스_41" data-name="패스 41" d="M463.445,285.211a2.65,2.65,0,0,1,.046-.461h-3.545a.479.479,0,0,0-.479.479v29.106a.479.479,0,0,0,.479.479h4.991a.479.479,0,0,0,.479-.479V288.111a.5.5,0,0,0-.325-.453A2.646,2.646,0,0,1,463.445,285.211Z" transform="translate(-33.226 -1.882)" fill="#3d2520"/>
    <path id="패스_42" data-name="패스 42" d="M388.908,324.545l.249-3.222a.48.48,0,0,0-.441-.514l-5.082-.393a.479.479,0,0,0-.515.441l-.653,8.451a.479.479,0,0,0,.441.514l6.137.474a.479.479,0,0,0,.345-.113,10.984,10.984,0,0,1,1.856-1.212c.1-.034.279-.072.373.073l.866,1.33a.48.48,0,0,0,.365.216l16.339,1.264a.479.479,0,0,0,.514-.441l.331-4.275a.479.479,0,0,0-.441-.514l-20.244-1.566A.479.479,0,0,1,388.908,324.545Z" transform="translate(-12.752 -11.995)" fill="#3d2520"/>
    <g id="그룹_70" data-name="그룹 70" transform="translate(437.002 282.079)">
      <path id="패스_43" data-name="패스 43" d="M505.126,318.8l-20.735.549a.48.48,0,0,1-.492-.466l-.11-4.179a.479.479,0,0,0-.492-.466l-5.219.138a.48.48,0,0,0-.466.491l.255,9.638a.48.48,0,0,0,.491.466l26.913-.713a.48.48,0,0,0,.466-.491l-.12-4.5A.478.478,0,0,0,505.126,318.8Z" transform="translate(-475.023 -291.824)" fill="#3d2520"/>
      <rect id="사각형_255" data-name="사각형 255" width="6.072" height="22.707" rx="0.653" transform="translate(22.319 0.214) rotate(-2.024)" fill="#3d2520"/>
      <path id="패스_44" data-name="패스 44" d="M498.412,309.593l1.722.162a.479.479,0,0,0,.521-.432l.114-1.212a.689.689,0,0,0-.855-.736,3.035,3.035,0,0,0-1.895,1.541A.476.476,0,0,0,498.412,309.593Z" transform="translate(-480.452 -289.988)" fill="#3d2520"/>
      <path id="패스_45" data-name="패스 45" d="M490.042,303.539a3.652,3.652,0,0,1,2.954-3.01.646.646,0,0,0,.493-.708c0-.024,0-.043,0-.067l-.026-13.895a.478.478,0,0,0-.48-.478l-5.076.009a.479.479,0,0,0-.478.48l.005,2.991a.479.479,0,0,1-.477.48l-6.356.012a.479.479,0,0,1-.48-.478l-.005-2.991a.48.48,0,0,0-.48-.478l-5.076.01a.48.48,0,0,0-.478.48l.032,17.291a.479.479,0,0,0,.48.478l15.433-.029Zm-9.883-5.439v-3.066a.48.48,0,0,1,.478-.48l6.228,0a.479.479,0,0,1,.479.479l0,3.066a.479.479,0,0,1-.479.479l-6.228,0A.48.48,0,0,1,480.159,298.1Z" transform="translate(-474.082 -284.129)" fill="#3d2520"/>
    </g>
  </g>
</svg>
