<svg xmlns="http://www.w3.org/2000/svg" width="90" height="90" viewBox="0 0 90 90">
  <g id="그룹_722" data-name="그룹 722" transform="translate(-898 -1254)">
    <g id="그룹_721" data-name="그룹 721" opacity="0">
      <rect id="사각형_725" data-name="사각형 725" width="90" height="90" transform="translate(898 1254)" fill="#fff"/>
    </g>
    <g id="그룹_516" data-name="그룹 516" transform="translate(310 189)">
      <g id="사각형_618" data-name="사각형 618" transform="translate(600 1077)" fill="none" stroke="#3d2520" stroke-width="3">
        <rect width="31" height="31" rx="5" stroke="none"/>
        <rect x="1.5" y="1.5" width="28" height="28" rx="3.5" fill="none"/>
      </g>
      <g id="사각형_619" data-name="사각형 619" transform="translate(635 1077)" fill="none" stroke="#b48963" stroke-width="3">
        <rect width="31" height="31" rx="5" stroke="none"/>
        <rect x="1.5" y="1.5" width="28" height="28" rx="3.5" fill="none"/>
      </g>
      <g id="사각형_620" data-name="사각형 620" transform="translate(635 1112)" fill="none" stroke="#b48963" stroke-width="3">
        <rect width="31" height="31" rx="5" stroke="none"/>
        <rect x="1.5" y="1.5" width="28" height="28" rx="3.5" fill="none"/>
      </g>
      <g id="패스_999" data-name="패스 999" transform="translate(600 1112)" fill="none">
        <path d="M5,0H26a5,5,0,0,1,5,5V26a5,5,0,0,1-5,5H5a5,5,0,0,1-5-5V5A5,5,0,0,1,5,0Z" stroke="none"/>
        <path d="M 5 3 C 3.897199630737305 3 3 3.897199630737305 3 5 L 3 26 C 3 27.1028003692627 3.897199630737305 28 5 28 L 26 28 C 27.1028003692627 28 28 27.1028003692627 28 26 L 28 5 C 28 3.897199630737305 27.1028003692627 3 26 3 L 5 3 M 5 0 L 26 0 C 28.76141929626465 0 31 2.238580703735352 31 5 L 31 26 C 31 28.76141929626465 28.76141929626465 31 26 31 L 5 31 C 2.238580703735352 31 0 28.76141929626465 0 26 L 0 5 C 0 2.238580703735352 2.238580703735352 0 5 0 Z" stroke="none" fill="#b48963"/>
      </g>
    </g>
  </g>
</svg>
