<svg xmlns="http://www.w3.org/2000/svg" width="642" height="196" viewBox="0 0 642 196">
  <g id="그룹_718" data-name="그룹 718" transform="translate(-300 -2484)">
    <rect id="사각형_615" data-name="사각형 615" width="642" height="196" transform="translate(300 2484)" fill="#321d1a"/>
    <g id="그룹_466" data-name="그룹 466" transform="translate(449 2524)">
      <path id="패스_973" data-name="패스 973" d="M392.639,337.405h12.9a1.239,1.239,0,0,0,1.238-1.24v-51.4a1.237,1.237,0,0,0-1.238-1.238H376.978a1.231,1.231,0,0,0-.756.26c-1.5,1.158-4.089,2.84-6.565,2.84-.146,0-.294-.006-.44-.019a4.5,4.5,0,0,1-3.325-1.909l-.872-1.172H337.945a1.238,1.238,0,0,0-1.238,1.238v11.9a1.24,1.24,0,0,0,1.238,1.24h52.218a1.238,1.238,0,0,1,1.238,1.238V309.5a1.238,1.238,0,0,1-1.238,1.238H337.945a1.238,1.238,0,0,0-1.238,1.238V323.79a1.239,1.239,0,0,0,1.238,1.238h52.218a1.238,1.238,0,0,1,1.238,1.238v9.9A1.239,1.239,0,0,0,392.639,337.405Z" transform="translate(-332.43 -272.465)" fill="#f2f1f1"/>
      <rect id="사각형_613" data-name="사각형 613" width="78.627" height="14.378" rx="0.653" transform="translate(0 71.027)" fill="#f2f1f1"/>
      <path id="패스_974" data-name="패스 974" d="M353.734,286.1a3.55,3.55,0,0,0,2.645,1.532c1.939.157,4.138-1.065,5.663-2.137.607-.425,1.117-.828,1.446-1.109l-7.985-5.477a2.718,2.718,0,0,0-3.719.622h0a3.313,3.313,0,0,0,0,3.956l1.5,2.008Z" transform="translate(-319.512 -277.034)" fill="#f2f1f1"/>
      <path id="패스_975" data-name="패스 975" d="M471.062,277.873c-5.206,2.076-12.963,5.953-5.994,8.485,6.046,2.2,8.41-1.983,9.333-5.572A2.493,2.493,0,0,0,471.062,277.873Z" transform="translate(-220.008 -277.693)" fill="#f2f1f1"/>
      <path id="패스_976" data-name="패스 976" d="M432.822,339.882l.963-9.194a1.226,1.226,0,0,0-1.458-1.34,59.216,59.216,0,0,1-16.457.279l-16.688-1.746a1.237,1.237,0,0,1-1.1-1.359l.387-3.693a1.238,1.238,0,0,1,1.359-1.1l27.045,2.83a1.237,1.237,0,0,0,1.359-1.1l2.792-26.681a1.237,1.237,0,0,0-1.1-1.359l-42.34-4.43a1.237,1.237,0,0,0-1.359,1.1l-.993,9.484a1.24,1.24,0,0,0,1.1,1.361l27.225,2.849a1.235,1.235,0,0,1,1.1,1.359l-.375,3.6a1.237,1.237,0,0,1-1.361,1.1l-27.043-2.828a1.237,1.237,0,0,0-1.361,1.1l-2.8,26.772a1.237,1.237,0,0,0,1.1,1.361l31.172,3.261c6.794.713,13.682.546,17.943-.555A1.216,1.216,0,0,0,432.822,339.882Z" transform="translate(-292.153 -265.133)" fill="#f2f1f1"/>
      <path id="패스_977" data-name="패스 977" d="M417.925,306.834l-7.132-.747a1.238,1.238,0,0,0-1.359,1.1l-1.24,11.837a1.24,1.24,0,0,0,1.1,1.361l7.132.745a1.239,1.239,0,0,1,1.1,1.361l-2.859,27.314a1.24,1.24,0,0,0,1.1,1.361l12.834,1.342a1.237,1.237,0,0,0,1.359-1.1l5.757-55.011a1.24,1.24,0,0,0-1.1-1.361L421.79,293.7a1.239,1.239,0,0,0-1.361,1.1l-1.143,10.931A1.24,1.24,0,0,1,417.925,306.834Z" transform="translate(-268.447 -262.454)" fill="#f2f1f1"/>
      <path id="패스_978" data-name="패스 978" d="M398.256,335.457a2.123,2.123,0,0,0-2.923-.643c-.514.334-1.045.705-1.541,1.1-1.276,1.007-2.319,2.146-2.231,3.117.074.823,1.01,1.505,2.783,2.025,5.227,1.532,7,1.1,7.587.705a.727.727,0,0,0,.254-.265L398.8,336.3Z" transform="translate(-283.333 -225.13)" fill="#f2f1f1"/>
      <path id="패스_979" data-name="패스 979" d="M463.519,307.678h14.8a1.238,1.238,0,0,0,1.238-1.238V294.72a1.237,1.237,0,0,0-1.238-1.238H463.778a1.24,1.24,0,0,1-1.238-1.24v-7.079a1.237,1.237,0,0,0-1.238-1.238H448.036a1.239,1.239,0,0,0-1.24,1.238v7.079a1.239,1.239,0,0,1-1.238,1.24h-15.45a1.237,1.237,0,0,0-1.238,1.238v11.72a1.238,1.238,0,0,0,1.238,1.238h15.46A1.252,1.252,0,0,1,446.813,309c-1.217,18.942-8.245,32.209-18.612,34.021a1.243,1.243,0,0,0-1.06,1.213v12.747a1.249,1.249,0,0,0,1.293,1.253c10.743-.567,19.894-7.147,26.042-18.476a1.237,1.237,0,0,1,2.059-.2l14.118,17.706a1.237,1.237,0,0,0,1.782.161l9.575-8.358a1.24,1.24,0,0,0,.133-1.731l-21.05-25.02a1.2,1.2,0,0,1-.267-1,108.531,108.531,0,0,0,1.467-12.468A1.236,1.236,0,0,1,463.519,307.678Z" transform="translate(-251.487 -272.11)" fill="#f2f1f1"/>
      <path id="패스_980" data-name="패스 980" d="M469.75,285.941a6.845,6.845,0,0,1,.12-1.191h-9.164a1.237,1.237,0,0,0-1.238,1.238v75.24a1.238,1.238,0,0,0,1.238,1.238h12.9a1.239,1.239,0,0,0,1.238-1.238v-67.79a1.287,1.287,0,0,0-.84-1.172A6.84,6.84,0,0,1,469.75,285.941Z" transform="translate(-222.543 -271.372)" fill="#f2f1f1"/>
      <path id="패스_981" data-name="패스 981" d="M399.121,331.092l.645-8.328a1.24,1.24,0,0,0-1.139-1.329l-13.138-1.016a1.238,1.238,0,0,0-1.331,1.139L382.469,343.4a1.238,1.238,0,0,0,1.139,1.329l15.865,1.227a1.238,1.238,0,0,0,.893-.292,28.4,28.4,0,0,1,4.8-3.134c.248-.087.722-.186.965.19l2.239,3.439a1.24,1.24,0,0,0,.942.559l42.237,3.266a1.238,1.238,0,0,0,1.329-1.139l.855-11.05a1.238,1.238,0,0,0-1.139-1.329l-52.332-4.047A1.238,1.238,0,0,1,399.121,331.092Z" transform="translate(-291.477 -237.73)" fill="#f2f1f1"/>
      <g id="그룹_465" data-name="그룹 465" transform="translate(264.602 11.338)">
        <path id="패스_982" data-name="패스 982" d="M548.74,326.029l-53.6,1.42a1.24,1.24,0,0,1-1.272-1.206l-.284-10.8a1.239,1.239,0,0,0-1.272-1.2l-13.492.356a1.24,1.24,0,0,0-1.206,1.27l.66,24.914a1.24,1.24,0,0,0,1.27,1.206l69.572-1.843a1.24,1.24,0,0,0,1.206-1.27l-.309-11.636A1.236,1.236,0,0,0,548.74,326.029Z" transform="translate(-470.921 -256.297)" fill="#f2f1f1"/>
        <rect id="사각형_614" data-name="사각형 614" width="15.696" height="58.698" rx="0.653" transform="translate(57.697 0.554) rotate(-2.024)" fill="#f2f1f1"/>
        <path id="패스_983" data-name="패스 983" d="M499.111,313.146l4.451.419a1.238,1.238,0,0,0,1.348-1.117l.3-3.134a1.78,1.78,0,0,0-2.21-1.9,7.845,7.845,0,0,0-4.9,3.985A1.23,1.23,0,0,0,499.111,313.146Z" transform="translate(-452.684 -262.465)" fill="#f2f1f1"/>
        <path id="패스_984" data-name="패스 984" d="M515.341,332.32a9.44,9.44,0,0,1,7.636-7.782,1.669,1.669,0,0,0,1.274-1.829c0-.063,0-.112,0-.173l-.066-35.919a1.236,1.236,0,0,0-1.24-1.236l-13.122.023a1.239,1.239,0,0,0-1.236,1.242l.013,7.733a1.238,1.238,0,0,1-1.234,1.24l-16.43.03a1.239,1.239,0,0,1-1.242-1.236l-.013-7.733a1.24,1.24,0,0,0-1.242-1.236l-13.122.025a1.241,1.241,0,0,0-1.236,1.24l.083,44.7a1.24,1.24,0,0,0,1.24,1.236l39.9-.074Zm-25.549-14.061,0-7.926a1.24,1.24,0,0,1,1.236-1.24l16.1-.01a1.238,1.238,0,0,1,1.238,1.238l.006,7.926a1.238,1.238,0,0,1-1.238,1.238l-16.1.011A1.24,1.24,0,0,1,489.792,318.259Z" transform="translate(-474.082 -282.145)" fill="#f2f1f1"/>
      </g>
    </g>
  </g>
</svg>
