<svg xmlns="http://www.w3.org/2000/svg" width="642" height="196" viewBox="0 0 642 196">
  <g id="그룹_719" data-name="그룹 719" transform="translate(-978 -2484)">
    <g id="사각형_612" data-name="사각형 612" transform="translate(978 2484)" fill="#fff" stroke="#321d1a" stroke-width="1">
      <rect width="642" height="196" stroke="none"/>
      <rect x="0.5" y="0.5" width="641" height="195" fill="none"/>
    </g>
    <g id="그룹_464" data-name="그룹 464" transform="translate(1127 2524)">
      <path id="패스_959" data-name="패스 959" d="M133.351,340.413h13.625a1.308,1.308,0,0,0,1.307-1.309V284.837a1.306,1.306,0,0,0-1.307-1.307H116.818a1.3,1.3,0,0,0-.8.274c-1.581,1.223-4.317,3-6.931,3-.156,0-.31-.006-.464-.02a4.75,4.75,0,0,1-3.511-2.016l-.921-1.237H75.606a1.306,1.306,0,0,0-1.307,1.307V297.4a1.308,1.308,0,0,0,1.307,1.309h55.131a1.306,1.306,0,0,1,1.307,1.307v10.933a1.306,1.306,0,0,1-1.307,1.307H75.606a1.306,1.306,0,0,0-1.307,1.307v12.472a1.307,1.307,0,0,0,1.307,1.307h55.131a1.306,1.306,0,0,1,1.307,1.307V339.1A1.309,1.309,0,0,0,133.351,340.413Z" transform="translate(-69.782 -273.849)" fill="#321d1a"/>
      <rect id="사각형_610" data-name="사각형 610" width="83.016" height="15.181" rx="0.653" transform="translate(0 71.235)" fill="#321d1a"/>
      <path id="패스_960" data-name="패스 960" d="M91.47,287.525a3.751,3.751,0,0,0,2.794,1.617c2.046.166,4.367-1.125,5.979-2.256.641-.448,1.179-.875,1.527-1.171l-8.431-5.783a2.872,2.872,0,0,0-3.929.657h0a3.5,3.5,0,0,0,0,4.177L91,286.886Z" transform="translate(-55.338 -277.956)" fill="#321d1a"/>
      <path id="패스_961" data-name="패스 961" d="M209.144,278.883c-5.5,2.192-13.687,6.285-6.329,8.959,6.383,2.318,8.877-2.094,9.854-5.883A2.633,2.633,0,0,0,209.144,278.883Z" transform="translate(41.904 -278.693)" fill="#321d1a"/>
      <path id="패스_962" data-name="패스 962" d="M173.268,342.612l1.017-9.708a1.3,1.3,0,0,0-1.539-1.415,62.525,62.525,0,0,1-17.376.294l-17.622-1.844a1.306,1.306,0,0,1-1.163-1.435l.408-3.9a1.306,1.306,0,0,1,1.435-1.165l28.552,2.988a1.308,1.308,0,0,0,1.437-1.165l2.948-28.17a1.308,1.308,0,0,0-1.165-1.435l-44.7-4.678a1.308,1.308,0,0,0-1.437,1.163l-1.047,10.014a1.308,1.308,0,0,0,1.165,1.437l28.744,3.008a1.3,1.3,0,0,1,1.163,1.435l-.4,3.8A1.3,1.3,0,0,1,152.253,313L123.7,310.019a1.3,1.3,0,0,0-1.435,1.163l-2.958,28.266a1.309,1.309,0,0,0,1.165,1.437l32.91,3.443c7.176.753,14.447.576,18.947-.586A1.287,1.287,0,0,0,173.268,342.612Z" transform="translate(-30.637 -266.677)" fill="#321d1a"/>
      <path id="패스_963" data-name="패스 963" d="M156.061,307.568l-7.53-.789a1.309,1.309,0,0,0-1.437,1.165l-1.307,12.5a1.309,1.309,0,0,0,1.165,1.437l7.528.787a1.309,1.309,0,0,1,1.165,1.437l-3.018,28.839a1.309,1.309,0,0,0,1.165,1.437l13.549,1.417a1.308,1.308,0,0,0,1.437-1.163l6.077-58.082a1.306,1.306,0,0,0-1.163-1.437L160.14,293.7a1.3,1.3,0,0,0-1.435,1.165L157.5,306.4A1.308,1.308,0,0,1,156.061,307.568Z" transform="translate(-6.718 -264.072)" fill="#321d1a"/>
      <path id="패스_964" data-name="패스 964" d="M136.22,334.512a2.241,2.241,0,0,0-3.086-.678c-.542.352-1.1.745-1.625,1.157-1.347,1.063-2.45,2.266-2.356,3.291.078.869,1.067,1.589,2.938,2.138,5.516,1.617,7.386,1.161,8.008.745a.779.779,0,0,0,.27-.28L136.8,335.4Z" transform="translate(-21.117 -224.557)" fill="#321d1a"/>
      <path id="패스_965" data-name="패스 965" d="M203.142,309H218.77a1.309,1.309,0,0,0,1.307-1.307V295.323a1.307,1.307,0,0,0-1.307-1.307H203.416a1.308,1.308,0,0,1-1.307-1.309v-7.474a1.307,1.307,0,0,0-1.307-1.307H186.793a1.307,1.307,0,0,0-1.307,1.307v7.474a1.308,1.308,0,0,1-1.307,1.309H167.866a1.306,1.306,0,0,0-1.307,1.307V307.7A1.307,1.307,0,0,0,167.866,309h16.323a1.319,1.319,0,0,1,1.313,1.4c-1.285,20-8.7,34.007-19.649,35.92a1.315,1.315,0,0,0-1.121,1.281v13.458a1.321,1.321,0,0,0,1.367,1.323c11.341-.6,21-7.546,27.5-19.507a1.306,1.306,0,0,1,2.174-.216l14.906,18.695a1.306,1.306,0,0,0,1.881.17l10.11-8.825a1.309,1.309,0,0,0,.14-1.827l-22.227-26.417a1.279,1.279,0,0,1-.282-1.057,113.707,113.707,0,0,0,1.549-13.164A1.309,1.309,0,0,1,203.142,309Z" transform="translate(9.043 -273.453)" fill="#321d1a"/>
      <path id="패스_966" data-name="패스 966" d="M207.916,286.007a7.227,7.227,0,0,1,.126-1.257h-9.678a1.307,1.307,0,0,0-1.307,1.307V365.5a1.309,1.309,0,0,0,1.307,1.307h13.623a1.307,1.307,0,0,0,1.307-1.307V293.923a1.356,1.356,0,0,0-.887-1.237A7.223,7.223,0,0,1,207.916,286.007Z" transform="translate(39.246 -272.627)" fill="#321d1a"/>
      <path id="패스_967" data-name="패스 967" d="M137.643,331.688l.679-8.793a1.307,1.307,0,0,0-1.2-1.4l-13.871-1.073a1.308,1.308,0,0,0-1.405,1.2l-1.783,23.066a1.307,1.307,0,0,0,1.2,1.4l16.751,1.3a1.306,1.306,0,0,0,.943-.308,29.9,29.9,0,0,1,5.066-3.309.836.836,0,0,1,1.019.2L147.4,347.6a1.313,1.313,0,0,0,.995.59l44.595,3.449a1.308,1.308,0,0,0,1.405-1.2l.9-11.667a1.31,1.31,0,0,0-1.2-1.4l-55.255-4.273A1.307,1.307,0,0,1,137.643,331.688Z" transform="translate(-30.395 -237.644)" fill="#321d1a"/>
      <g id="그룹_463" data-name="그룹 463" transform="translate(260.17 9.969)">
        <path id="패스_968" data-name="패스 968" d="M290.3,326.687l-56.6,1.5a1.309,1.309,0,0,1-1.341-1.273l-.3-11.4a1.3,1.3,0,0,0-1.341-1.271l-14.247.376a1.307,1.307,0,0,0-1.271,1.341l.7,26.3a1.307,1.307,0,0,0,1.341,1.273l73.455-1.945a1.309,1.309,0,0,0,1.273-1.341l-.326-12.286A1.308,1.308,0,0,0,290.3,326.687Z" transform="translate(-208.14 -259.321)" fill="#321d1a"/>
        <rect id="사각형_611" data-name="사각형 611" width="16.572" height="61.975" rx="0.653" transform="translate(60.916 0.585) rotate(-2.024)" fill="#321d1a"/>
        <path id="패스_969" data-name="패스 969" d="M235.767,313.47l4.7.442a1.309,1.309,0,0,0,1.425-1.179l.31-3.309a1.88,1.88,0,0,0-2.334-2.008,8.284,8.284,0,0,0-5.17,4.207A1.3,1.3,0,0,0,235.767,313.47Z" transform="translate(-188.75 -263.494)" fill="#321d1a"/>
        <path id="패스_970" data-name="패스 970" d="M255.236,334.94a9.964,9.964,0,0,1,8.06-8.216,1.763,1.763,0,0,0,1.347-1.932c0-.066,0-.118,0-.182l-.07-37.924a1.307,1.307,0,0,0-1.309-1.3l-13.857.024a1.307,1.307,0,0,0-1.3,1.311l.014,8.164a1.307,1.307,0,0,1-1.3,1.309l-17.348.032a1.307,1.307,0,0,1-1.309-1.305l-.016-8.164a1.306,1.306,0,0,0-1.309-1.305l-13.855.026a1.307,1.307,0,0,0-1.305,1.309l.088,47.193a1.306,1.306,0,0,0,1.309,1.305l42.123-.078Zm-26.975-14.846-.006-8.369a1.309,1.309,0,0,1,1.307-1.309l17-.01a1.309,1.309,0,0,1,1.309,1.307l0,8.369a1.306,1.306,0,0,1-1.305,1.307l-17,.012A1.308,1.308,0,0,1,228.261,320.094Z" transform="translate(-211.674 -281.964)" fill="#321d1a"/>
      </g>
    </g>
  </g>
</svg>
