<svg xmlns="http://www.w3.org/2000/svg" width="276" height="276" viewBox="0 0 276 276">
  <g id="그룹_717" data-name="그룹 717" transform="translate(-1232 -860)">
    <circle id="타원_4" data-name="타원 4" cx="138" cy="138" r="138" transform="translate(1232 860)" fill="#e5e890"/>
    <g id="그룹_437" data-name="그룹 437" transform="translate(1284 908.001)">
      <g id="그룹_420" data-name="그룹 420" transform="translate(8.175 40.506)">
        <path id="패스_749" data-name="패스 749" d="M356.242,74.821a3.3,3.3,0,0,1-1.22,0,6.776,6.776,0,0,1-1.05-.132,5.533,5.533,0,0,0,1.8.838.9.9,0,0,0,.773-.418Z" transform="translate(-286.057 -57.708)" fill="#25170f"/>
        <path id="패스_750" data-name="패스 750" d="M382,69.064a8.191,8.191,0,0,1,10.785,2.961c4.547,6.449-4.476,17.55-3.454,21.78s3.983,8.046-3.312,6.719-11-9.785-9.622-18.773S382,69.064,382,69.064Z" transform="translate(-281.587 -59.034)" fill="#25170f"/>
        <path id="패스_751" data-name="패스 751" d="M374.884,93.482a13.654,13.654,0,0,1-4.3,5.6c-3.172,2.431-7.009,2.538-9.758.635s-8.564-4.335-14.273-2.96a71.791,71.791,0,0,0-11.843,4.28s-8.563,1.27-11.736,1.984-5.312,1.269-5.312,1.269,1.506-9.516,3.886-14.354,9.991-13.718,9.991-13.718a24.962,24.962,0,0,0,5.432.754c3.013.079,6.462.4,6.462.4a2.7,2.7,0,0,0,3.489.99,2.136,2.136,0,0,0,.952-3.092,12.62,12.62,0,0,0,1.071-3.886c0-1.507-3.132-6.78-5.036-7.335s-14.194,4.242-17.049,6.066-10.546,12.608-16.018,19.032-12.688,17.286-13.321,21.013,4.519,6.662,8.247,7.138,18.079,3.172,27.913.475,10.625-2.934,12.291-.713,6.661,15.542,6.661,15.542.952,14.273,1.428,23-1.745,13.481-1.745,13.481,2.38,8.564,17.6,6.978a51.039,51.039,0,0,0,24.741-9.2v-11.9c0-4.916,2.061-9.674,5.233-15.383a73.431,73.431,0,0,1,6.555-9.832V109.606a19.439,19.439,0,0,1-8.933-4.123c-4.375-3.561-5.28-5.179-6.56-8.253a107.247,107.247,0,0,1-3.793-11.941Z" transform="translate(-297.463 -59.865)" fill="#db6349"/>
        <path id="패스_752" data-name="패스 752" d="M373.89,84.331l-5.2,1-6.064,4.049a13.654,13.654,0,0,1-4.3,5.6c-.036.028-.074.052-.111.079a20.394,20.394,0,0,0,8.9-2.417C371.575,90.036,373.89,84.331,373.89,84.331Z" transform="translate(-285.202 -55.762)" fill="#25170f"/>
        <path id="패스_753" data-name="패스 753" d="M346.8,94.454s8.367,3.341,13.224,4.928,5.384,4.079,5.384,4.079" transform="translate(-287.505 -53.719)" fill="none" stroke="#25170f" stroke-linecap="round" stroke-miterlimit="10" stroke-width="0.666"/>
        <path id="패스_754" data-name="패스 754" d="M367.732,103.055s1.692-2.643,7.508-2.114,9.253,1.9,13.983,2.114" transform="translate(-283.28 -52.424)" fill="none" stroke="#25170f" stroke-linecap="round" stroke-miterlimit="10" stroke-width="0.666"/>
        <path id="패스_755" data-name="패스 755" d="M379.98,146.266l-3.428-.587s-5.153,2.973-6.308,5.2c-.72,1.392,4.4,1.054,8.359.474.9-.6,1.377-.983,1.377-.983Z" transform="translate(-282.787 -43.38)" fill="#25170f"/>
        <path id="패스_756" data-name="패스 756" d="M344.493,151.806s-4.319,16.774-5.694,21.954-2.606,8.842-2.606,8.842h65.024s-3.383-17.579-8.882-25.509-5.5-7.507-5.5-7.507Z" transform="translate(-289.645 -42.592)" fill="#945c3c"/>
        <path id="패스_757" data-name="패스 757" d="M356.265,72.769s-2.946-7.623,4.271-10.8,19.549-.881,25.1,5.617-1.823,20.216-3.727,21.8-7.507-.264-7.507-.264Z" transform="translate(-285.714 -60.56)" fill="#25170f"/>
        <path id="패스_758" data-name="패스 758" d="M358.151,67.726s-2.348,5.7-2.428,7.362a5.848,5.848,0,0,0,.294,2.487s-2.862,5.9-2.862,6.686,2.876.812,2.876.812.4,2.987.74,5.794c.264,2.193-.379,3.845.975,4.742,1.446.958,5.585.108,10.449-2.217a15.476,15.476,0,0,0,6.713-5.71,3.808,3.808,0,0,0,3.542-1.744,5.245,5.245,0,0,0,0-5.71c-.846-1.11-4.441.846-4.441.846l-1.665-.148.4-4.557a44.692,44.692,0,0,1-8.876-5.333C360.482,68.106,358.151,67.726,358.151,67.726Z" transform="translate(-286.222 -59.113)" fill="#db6349"/>
        <path id="패스_759" data-name="패스 759" d="M370.664,82.784A1.667,1.667,0,0,0,372,81.02c-.129-1.46,1.761-2.461,2.577-1.681" transform="translate(-282.688 -56.825)" fill="none" stroke="#25170f" stroke-linecap="round" stroke-miterlimit="10" stroke-width="0.666"/>
        <circle id="타원_532" data-name="타원 532" cx="1.061" cy="1.061" r="1.061" transform="translate(74.822 17.4)" fill="#25170f"/>
        <path id="패스_760" data-name="패스 760" d="M360.982,75.06a3.285,3.285,0,0,1-1.219,0,6.839,6.839,0,0,1-1.052-.132,5.546,5.546,0,0,0,1.8.838.894.894,0,0,0,.773-.419Z" transform="translate(-285.1 -57.66)" fill="#25170f"/>
        <path id="패스_761" data-name="패스 761" d="M356.1,84.071l7.176-.636A11.045,11.045,0,0,1,359,86.523c-2.223.66-2.634,0-2.634,0Z" transform="translate(-285.628 -55.943)" fill="#fff"/>
        <path id="패스_762" data-name="패스 762" d="M391.492,101.948s5.1.475,10.812,6.105,7.454,10.23,9.437,12.846,8.723,11.022,11.022,14.908,3.568,7.138,2.934,9.913-24.186,19.428-28.071,21.885-5.709,4.6-7.692,5-2.14-3.806-5.075-4.361-7.1-.238-7.93-.714a2.041,2.041,0,0,1-.99-1.228s-2.5.754-3.094-.2a2.419,2.419,0,0,1-.159-2.023,1.114,1.114,0,0,1-1.149-1.109c0-1.11,5.288-4.163,6.455-4.837s1.167-.412,1.167-.412l.149-.778s-3.529,1.507-5.234,1.15-1.823-1.666.119-2.618,4-2.021,6.265-1.506,3.33,2.973,4.559,4.361,3.925,4.758,3.925,4.758,8.921-6.186,12.965-9.833,10.151-10.468,10.151-10.468a45.823,45.823,0,0,1-5.472-6.264c-2.775-3.806-6.661-8.406-10.07-10.784s-5.024-3.648-5.024-3.648S386.945,108.609,391.492,101.948Z" transform="translate(-282.512 -52.206)" fill="#db6349"/>
        <path id="패스_763" data-name="패스 763" d="M322.954,72.552s2.642,3.49,15.329,3.095" transform="translate(-292.317 -58.139)" fill="none" stroke="#25170f" stroke-linecap="round" stroke-miterlimit="10" stroke-width="0.666"/>
        <path id="패스_764" data-name="패스 764" d="M332.631,102.688s12.224.635,17.973,16.071" transform="translate(-290.364 -52.057)" fill="none" stroke="#25170f" stroke-linecap="round" stroke-miterlimit="10" stroke-width="0.666"/>
        <path id="패스_765" data-name="패스 765" d="M316.05,92.235s-.568,8.122-4.269,9.708" transform="translate(-294.573 -54.167)" fill="none" stroke="#25170f" stroke-linecap="round" stroke-miterlimit="10" stroke-width="0.666"/>
        <path id="패스_766" data-name="패스 766" d="M330.811,99.345s-3.013,3.806-12.212,5.234" transform="translate(-293.196 -52.732)" fill="none" stroke="#25170f" stroke-linecap="round" stroke-miterlimit="10" stroke-width="0.666"/>
        <path id="패스_767" data-name="패스 767" d="M390.274,115.181s-4.066,6.5-7.98,8.882" transform="translate(-280.341 -49.535)" fill="none" stroke="#25170f" stroke-linecap="round" stroke-miterlimit="10" stroke-width="0.666"/>
        <path id="패스_768" data-name="패스 768" d="M390.624,133.409c.47-.844.942-1.649,1.409-2.416l0-.007s.227-2.305-1.148-8.823-.787-21.515-.787-21.515a19.624,19.624,0,0,1-1.856-1.336c-.54-.44-1.012-.85-1.427-1.238.077,2.484.211,10.817-1.216,15.458-1.692,5.5-11.524,11.524-18.821,11.63s-9.3-8.247-10.89-12.9a25.567,25.567,0,0,1-1.586-7.4l3.348-10.2a10.565,10.565,0,0,1-3.914-.085v.056s-.385,7.689-2.711,12.659-6.661,12.581-7.665,19.137c0,0,.553,8.289,1.026,16.095h0s10.339,2.2,21.758,4.205,19.244,2.96,19.244,2.96v-.9C385.391,143.877,387.452,139.119,390.624,133.409Z" transform="translate(-288.198 -53.694)" fill="#7397d0"/>
        <path id="패스_769" data-name="패스 769" d="M411.016,136.51s-2.07-2.573-5.763-.441" transform="translate(-275.707 -45.49)" fill="none" stroke="#25170f" stroke-linecap="round" stroke-miterlimit="10" stroke-width="0.666"/>
        <path id="패스_770" data-name="패스 770" d="M339.077,73.349s-4.453,1.187-2.993,2.6" transform="translate(-289.727 -57.979)" fill="none" stroke="#25170f" stroke-linecap="round" stroke-miterlimit="10" stroke-width="0.666"/>
        <path id="패스_771" data-name="패스 771" d="M357.416,72.84a11.14,11.14,0,0,1,4.316-.28,5.848,5.848,0,0,1,2.856,1.211l.3.775a9.851,9.851,0,0,0-3.5-.936,16.174,16.174,0,0,0-3.6.595A1.152,1.152,0,0,1,357.416,72.84Z" transform="translate(-285.383 -58.161)" fill="#25170f"/>
      </g>
      <g id="그룹_421" data-name="그룹 421" transform="translate(0 11.579)">
        <path id="패스_772" data-name="패스 772" d="M307.361,62.671a2.571,2.571,0,0,1-2.127-2.127.362.362,0,0,0-.7,0,2.569,2.569,0,0,1-2.127,2.127.362.362,0,0,0,0,.7,2.572,2.572,0,0,1,2.127,2.127.362.362,0,0,0,.7,0,2.574,2.574,0,0,1,2.127-2.127A.362.362,0,0,0,307.361,62.671Z" transform="translate(-288.342 -31.689)" fill="#fff"/>
        <path id="패스_773" data-name="패스 773" d="M398.627,38.881a2.571,2.571,0,0,1-2.127-2.127.362.362,0,0,0-.7,0,2.569,2.569,0,0,1-2.127,2.127.362.362,0,0,0,0,.7A2.572,2.572,0,0,1,395.8,41.7a.362.362,0,0,0,.7,0,2.574,2.574,0,0,1,2.127-2.127A.362.362,0,0,0,398.627,38.881Z" transform="translate(-269.921 -36.491)" fill="#25170f"/>
        <path id="패스_774" data-name="패스 774" d="M410.586,162.366a2.569,2.569,0,0,1-2.127-2.127.362.362,0,0,0-.7,0,2.571,2.571,0,0,1-2.127,2.127.362.362,0,0,0,0,.7,2.572,2.572,0,0,1,2.127,2.127.362.362,0,0,0,.7,0,2.571,2.571,0,0,1,2.127-2.127A.362.362,0,0,0,410.586,162.366Z" transform="translate(-267.507 -11.567)" fill="#25170f"/>
        <path id="패스_775" data-name="패스 775" d="M295.874,116.823a2.572,2.572,0,0,1-2.127-2.127.362.362,0,0,0-.7,0,2.571,2.571,0,0,1-2.127,2.127.362.362,0,0,0,0,.7,2.569,2.569,0,0,1,2.127,2.127.362.362,0,0,0,.7,0,2.571,2.571,0,0,1,2.127-2.127A.362.362,0,0,0,295.874,116.823Z" transform="translate(-290.66 -20.76)" fill="#25170f"/>
        <path id="패스_776" data-name="패스 776" d="M407.4,98.314a2.575,2.575,0,0,1-2.127-2.128.362.362,0,0,0-.7,0,2.572,2.572,0,0,1-2.127,2.128.361.361,0,0,0,0,.695,2.572,2.572,0,0,1,2.127,2.128.362.362,0,0,0,.7,0,2.575,2.575,0,0,1,2.127-2.128A.361.361,0,0,0,407.4,98.314Z" transform="translate(-268.149 -24.496)" fill="#25170f"/>
        <path id="패스_777" data-name="패스 777" d="M427.115,65.66a2.571,2.571,0,0,1-2.127-2.127.362.362,0,0,0-.7,0,2.574,2.574,0,0,1-2.127,2.127.362.362,0,0,0,0,.7,2.572,2.572,0,0,1,2.127,2.127.362.362,0,0,0,.7,0,2.569,2.569,0,0,1,2.127-2.127A.362.362,0,0,0,427.115,65.66Z" transform="translate(-264.171 -31.086)" fill="#fff"/>
        <path id="패스_778" data-name="패스 778" d="M322.121,169.8a2.574,2.574,0,0,1-2.127-2.127.362.362,0,0,0-.7,0,2.572,2.572,0,0,1-2.127,2.127.361.361,0,0,0,0,.695,2.572,2.572,0,0,1,2.127,2.128.362.362,0,0,0,.7,0,2.573,2.573,0,0,1,2.127-2.128A.361.361,0,0,0,322.121,169.8Z" transform="translate(-285.362 -10.067)" fill="#25170f"/>
      </g>
      <g id="그룹_436" data-name="그룹 436" transform="translate(1.687 -0.001)">
        <g id="그룹_422" data-name="그룹 422" transform="translate(19.271 10.546)">
          <circle id="타원_533" data-name="타원 533" cx="13.669" cy="13.669" r="13.669" transform="translate(0 6.312) rotate(-13.349)" fill="#945c3c"/>
          <circle id="타원_534" data-name="타원 534" cx="11.318" cy="11.318" r="11.318" transform="matrix(0.38, -0.925, 0.925, 0.38, 1.683, 22.615)" fill="#25170f"/>
          <circle id="타원_535" data-name="타원 535" cx="10.242" cy="10.242" r="10.242" transform="translate(4.127 8.851) rotate(-13.332)" fill="#f1d04c"/>
          <path id="패스_779" data-name="패스 779" d="M321.363,44.338a.74.74,0,1,0-.739.74A.739.739,0,0,0,321.363,44.338Z" transform="translate(-305.72 -34.023)" fill="#e8ab2d"/>
          <path id="패스_780" data-name="패스 780" d="M324.279,52.654a.74.74,0,1,0-.74.739A.741.741,0,0,0,324.279,52.654Z" transform="translate(-305.132 -32.345)" fill="#e8ab2d"/>
          <path id="패스_781" data-name="패스 781" d="M325.833,46a.74.74,0,1,0-.739.739A.74.74,0,0,0,325.833,46Z" transform="translate(-304.818 -33.687)" fill="#e8ab2d"/>
          <path id="패스_782" data-name="패스 782" d="M319.552,55.443a.74.74,0,1,0-.74.739A.741.741,0,0,0,319.552,55.443Z" transform="translate(-306.086 -31.782)" fill="#e8ab2d"/>
          <path id="패스_783" data-name="패스 783" d="M318.164,49.683a.74.74,0,1,0-.739.74A.739.739,0,0,0,318.164,49.683Z" transform="translate(-306.366 -32.944)" fill="#e8ab2d"/>
          <path id="패스_784" data-name="패스 784" d="M318.05,48.9a.4.4,0,1,0-.4.4A.4.4,0,0,0,318.05,48.9Z" transform="translate(-306.251 -33.034)" fill="#e8ab2d"/>
          <circle id="타원_536" data-name="타원 536" cx="0.399" cy="0.399" r="0.399" transform="translate(17.133 20.309)" fill="#e8ab2d"/>
          <circle id="타원_537" data-name="타원 537" cx="0.399" cy="0.399" r="0.399" transform="translate(16.563 15.352)" fill="#e8ab2d"/>
          <circle id="타원_538" data-name="타원 538" cx="0.399" cy="0.399" r="0.399" transform="translate(6.918 18.881)" fill="#e8ab2d"/>
          <circle id="타원_539" data-name="타원 539" cx="0.399" cy="0.399" r="0.399" transform="translate(7.317 15.202)" fill="#e8ab2d"/>
          <path id="패스_785" data-name="패스 785" d="M317.483,53.531a.4.4,0,1,0-.4.4A.4.4,0,0,0,317.483,53.531Z" transform="translate(-306.366 -32.099)" fill="#e8ab2d"/>
          <circle id="타원_540" data-name="타원 540" cx="0.399" cy="0.399" r="0.399" transform="translate(20.822 11.918)" fill="#e8ab2d"/>
          <path id="패스_786" data-name="패스 786" d="M328.429,47.566a.4.4,0,1,0-.4.4A.4.4,0,0,0,328.429,47.566Z" transform="translate(-304.157 -33.303)" fill="#e8ab2d"/>
          <path id="패스_787" data-name="패스 787" d="M319.769,47.1a.4.4,0,1,0-.4.4A.4.4,0,0,0,319.769,47.1Z" transform="translate(-305.904 -33.398)" fill="#e8ab2d"/>
          <path id="패스_788" data-name="패스 788" d="M326.973,43.873a.4.4,0,1,0-.4.4A.4.4,0,0,0,326.973,43.873Z" transform="translate(-304.45 -34.048)" fill="#e8ab2d"/>
          <circle id="타원_541" data-name="타원 541" cx="0.399" cy="0.399" r="0.399" transform="translate(13.465 19.511)" fill="#e8ab2d"/>
          <path id="패스_789" data-name="패스 789" d="M319.437,56.058a.4.4,0,1,0-.4.4A.4.4,0,0,0,319.437,56.058Z" transform="translate(-305.971 -31.589)" fill="#e8ab2d"/>
          <circle id="타원_542" data-name="타원 542" cx="0.399" cy="0.399" r="0.399" transform="translate(18.009 7.66)" fill="#e8ab2d"/>
          <circle id="타원_543" data-name="타원 543" cx="0.399" cy="0.399" r="0.399" transform="translate(16.455 24.137)" fill="#e8ab2d"/>
          <path id="패스_790" data-name="패스 790" d="M328.429,50.242a.4.4,0,1,0-.4.4A.4.4,0,0,0,328.429,50.242Z" transform="translate(-304.157 -32.763)" fill="#e8ab2d"/>
          <circle id="타원_544" data-name="타원 544" cx="0.399" cy="0.399" r="0.399" transform="translate(11.986 9.323)" fill="#e8ab2d"/>
          <path id="패스_791" data-name="패스 791" d="M326.383,55.531a.4.4,0,1,0-.4.4A.4.4,0,0,0,326.383,55.531Z" transform="translate(-304.57 -31.695)" fill="#e8ab2d"/>
          <path id="패스_792" data-name="패스 792" d="M327.588,52.6a.4.4,0,1,0-.4.4A.4.4,0,0,0,327.588,52.6Z" transform="translate(-304.326 -32.287)" fill="#e8ab2d"/>
          <path id="패스_793" data-name="패스 793" d="M325.152,49.294a.4.4,0,1,0-.4.4A.4.4,0,0,0,325.152,49.294Z" transform="translate(-304.818 -32.954)" fill="#e8ab2d"/>
          <path id="패스_794" data-name="패스 794" d="M316.666,45.388a.74.74,0,1,0-.74.74A.74.74,0,0,0,316.666,45.388Z" transform="translate(-306.668 -33.811)" fill="#e8ab2d"/>
          <path id="패스_795" data-name="패스 795" d="M327.987,50.3a.74.74,0,1,0-.74.739A.741.741,0,0,0,327.987,50.3Z" transform="translate(-304.383 -32.82)" fill="#e8ab2d"/>
          <path id="패스_796" data-name="패스 796" d="M332.994,51.043a10.244,10.244,0,0,0-15.962-8.5,13.439,13.439,0,0,1,10.884,4.36c3.09,3.432,3.96,6.459,4.14,8.416A10.2,10.2,0,0,0,332.994,51.043Z" transform="translate(-306.296 -34.588)" fill="#e8ab2d"/>
        </g>
        <g id="그룹_423" data-name="그룹 423" transform="translate(3.049 60.373)">
          <path id="패스_797" data-name="패스 797" d="M302.593,81.086a4,4,0,1,0-4,4A4,4,0,0,0,302.593,81.086Z" transform="translate(-294.601 -77.09)" fill="#7397d0"/>
          <path id="패스_798" data-name="패스 798" d="M300.141,80.163a2.81,2.81,0,1,0-.6.887A.956.956,0,0,0,300.141,80.163Z" transform="translate(-294.082 -76.769)" fill="#9abad7"/>
          <path id="패스_799" data-name="패스 799" d="M299.731,80.1a1.1,1.1,0,1,0-1.1,1.1A1.1,1.1,0,0,0,299.731,80.1Z" transform="translate(-294.009 -76.704)" fill="#25170f"/>
          <path id="패스_800" data-name="패스 800" d="M296.533,81.436c-.808-1.043-1.553-1.445-1.481-.386a3.056,3.056,0,0,0,2.167,2.637C298.327,83.82,296.926,81.943,296.533,81.436Z" transform="translate(-294.511 -76.416)" fill="#fff" opacity="0.2"/>
          <path id="패스_801" data-name="패스 801" d="M299.983,78.148c-.625-.374-.866-.314-.529.614s1,2.515,1.287,1.613A2.513,2.513,0,0,0,299.983,78.148Z" transform="translate(-293.652 -76.92)" fill="#fff" opacity="0.2"/>
        </g>
        <g id="그룹_424" data-name="그룹 424" transform="translate(129.098 65.986)">
          <circle id="타원_545" data-name="타원 545" cx="3.996" cy="3.996" r="3.996" fill="#7397d0"/>
          <path id="패스_802" data-name="패스 802" d="M405.022,84.834a2.81,2.81,0,1,0-.6.886A.959.959,0,0,0,405.022,84.834Z" transform="translate(-398.963 -81.44)" fill="#9abad7"/>
          <path id="패스_803" data-name="패스 803" d="M404.611,84.77a1.1,1.1,0,1,0-1.1,1.1A1.1,1.1,0,0,0,404.611,84.77Z" transform="translate(-398.89 -81.375)" fill="#25170f"/>
          <path id="패스_804" data-name="패스 804" d="M401.414,86.106c-.806-1.043-1.553-1.445-1.481-.386a3.056,3.056,0,0,0,2.167,2.637C403.207,88.49,401.807,86.615,401.414,86.106Z" transform="translate(-399.391 -81.087)" fill="#fff" opacity="0.2"/>
          <path id="패스_805" data-name="패스 805" d="M404.865,82.818c-.625-.374-.867-.314-.53.614s1,2.515,1.288,1.613A2.518,2.518,0,0,0,404.865,82.818Z" transform="translate(-398.533 -81.59)" fill="#fff" opacity="0.2"/>
        </g>
        <g id="그룹_425" data-name="그룹 425" transform="translate(149.319 64.9)">
          <path id="패스_806" data-name="패스 806" d="M421.459,101.8s-4.7-4.824-5.109-8.158,2.221-1.464,2.221-1.464-4.565-8.4.456-11.011,5.689,11.97,5.689,11.97,1.657-2.689,3.406-1.535-3.037,9.979-3.037,9.979Z" transform="translate(-416.307 -80.857)" fill="#aec458"/>
          <path id="패스_807" data-name="패스 807" d="M421.8,96.01s-3.459.649-4.44,2.947,6,34.482,11.22,34.1,2.735-31.23,2-34.193S425.889,95.393,421.8,96.01Z" transform="translate(-416.113 -77.846)" fill="#e8ab2d"/>
          <path id="패스_808" data-name="패스 808" d="M417.685,102.589a5.462,5.462,0,0,1,4.014-2.03" transform="translate(-416.029 -76.882)" fill="none" stroke="#945c3c" stroke-miterlimit="10" stroke-width="0.163"/>
          <path id="패스_809" data-name="패스 809" d="M429.774,105.561a9.982,9.982,0,0,0-4.273-.237" transform="translate(-414.451 -75.949)" fill="none" stroke="#945c3c" stroke-miterlimit="10" stroke-width="0.163"/>
          <path id="패스_810" data-name="패스 810" d="M419.951,112.506a3.447,3.447,0,0,1,1.87-1.675,6.9,6.9,0,0,1,2.52-.427" transform="translate(-415.571 -74.894)" fill="none" stroke="#945c3c" stroke-miterlimit="10" stroke-width="0.163"/>
          <path id="패스_811" data-name="패스 811" d="M430,117.753a8.314,8.314,0,0,0-4.768-.488" transform="translate(-414.505 -73.539)" fill="none" stroke="#945c3c" stroke-miterlimit="10" stroke-width="0.163"/>
          <path id="패스_812" data-name="패스 812" d="M423.573,123.065a8.019,8.019,0,0,1,2.481-1.117" transform="translate(-414.84 -72.564)" fill="none" stroke="#945c3c" stroke-miterlimit="10" stroke-width="0.163"/>
          <path id="패스_813" data-name="패스 813" d="M426.89,100.108c-.324-.842-.82-1.821-1.72-1.9a1.586,1.586,0,0,0-1.282.588,3.66,3.66,0,0,0-.661,1.3c-.88,2.708-.673,5.633-.455,8.472.429,5.607.893,11.353,3.252,16.457.251.546.675,1.168,1.272,1.1.51-.062.8-.6.982-1.079a23.96,23.96,0,0,0,1.332-9.744c-.079-1.672-.294-3.324-.536-4.979-.21-1.443-.039-2.872-.315-4.324A34.568,34.568,0,0,0,426.89,100.108Z" transform="translate(-415.04 -77.356)" fill="#fff" opacity="0.2"/>
        </g>
        <g id="그룹_426" data-name="그룹 426" transform="translate(0 118.819)">
          <path id="패스_814" data-name="패스 814" d="M330.564,130.288a8.667,8.667,0,0,0-5.342.059c-2.613,1-5.643,6.326-12.113,9.813s-12.974,2.892-14.785,3.83a47.09,47.09,0,0,0-5.054,3.464l-.165,1.838a14.59,14.59,0,0,0,8.885,3.488,39,39,0,0,0,22.4-5.687,19.767,19.767,0,0,0,9.226-13.779,9.436,9.436,0,0,0,.107-2.215l1.9-2.5-2.15-2.88Z" transform="translate(-291.854 -125.721)" fill="#e8ab2d"/>
          <path id="패스_815" data-name="패스 815" d="M330.086,131.618a19.188,19.188,0,0,1-16.329,16.427c-14.993,2.521-19.646-.673-19.646-.673a41.846,41.846,0,0,0,20.467-2.482C324.677,140.7,329.424,134.744,330.086,131.618Z" transform="translate(-291.651 -124.531)" fill="#fff" opacity="0.4"/>
          <path id="패스_816" data-name="패스 816" d="M330.516,130.47s-.294,4.741-6.24,9.226A38.143,38.143,0,0,1,306.4,147.47c-6.777,1.166-12.521.514-12.973-.316" transform="translate(-291.789 -124.763)" fill="none" stroke="#945c3c" stroke-miterlimit="10" stroke-width="0.109"/>
          <path id="패스_817" data-name="패스 817" d="M293.878,143.55l-1.723.483-.09,1.752,2.1.547A5.936,5.936,0,0,1,293.878,143.55Z" transform="translate(-292.064 -122.123)" fill="#945c3c"/>
        </g>
        <g id="그룹_429" data-name="그룹 429" transform="translate(79.796)">
          <g id="그룹_427" data-name="그룹 427" transform="translate(1.971 9.633)">
            <path id="패스_818" data-name="패스 818" d="M374.877,57.908c1.4-.624.119-3.376.119-3.376l4.369-.095a4.955,4.955,0,0,0,2.734-.873,2.209,2.209,0,0,0,1.058-1.422,2.92,2.92,0,0,0-1.2-2.378s5.212-.58,6.175-2.584a3,3,0,0,0-.149-3.27s1.747-1.137.361-4.173-5.026-1.1-5.026-1.1-.138-1.862-1.526-1.584c-.982.2-2.255,1.4-3.345,2.757a3.608,3.608,0,0,0-.574-3.139,2.138,2.138,0,0,0-3.261.034,2.558,2.558,0,0,0-3.245-1.7c-2.508.71-2.525,3.908-2.525,3.908s-1.455-1.234-2.84,1.2.41,5.545-1.943,9.117a13.121,13.121,0,0,1-1.168,1.491c-1.4,1.559-3.255,1.339-2.68,1.913s3.033,1.083,6.149,1.791S373.476,58.531,374.877,57.908Z" transform="translate(-360.099 -34.871)" fill="#82a334"/>
            <path id="패스_819" data-name="패스 819" d="M373.819,39.489s-1.445,7.5-5.079,10.3" transform="translate(-358.355 -33.939)" fill="none" stroke="#aec458" stroke-linecap="round" stroke-miterlimit="10" stroke-width="0.376"/>
            <path id="패스_820" data-name="패스 820" d="M375.255,41.128a8.972,8.972,0,0,1-3.985,4.19" transform="translate(-357.844 -33.608)" fill="none" stroke="#aec458" stroke-linecap="round" stroke-miterlimit="10" stroke-width="0.376"/>
            <path id="패스_821" data-name="패스 821" d="M375.532,48.009A10.374,10.374,0,0,1,371.4,49.2" transform="translate(-357.819 -32.22)" fill="none" stroke="#aec458" stroke-linecap="round" stroke-miterlimit="10" stroke-width="0.376"/>
            <path id="패스_822" data-name="패스 822" d="M360.272,51.094a38,38,0,0,0,15.447-3.575c7.735-3.723,10.848-6.975,10.848-6.975" transform="translate(-360.064 -33.726)" fill="none" stroke="#aec458" stroke-linecap="round" stroke-miterlimit="10" stroke-width="0.376"/>
            <path id="패스_823" data-name="패스 823" d="M382.177,43.786s-3.347,1.225-5.276.667" transform="translate(-356.707 -33.072)" fill="none" stroke="#aec458" stroke-linecap="round" stroke-miterlimit="10" stroke-width="0.376"/>
            <path id="패스_824" data-name="패스 824" d="M376.662,41.345a33.426,33.426,0,0,1-3.537,6.012" transform="translate(-357.47 -33.565)" fill="none" stroke="#aec458" stroke-linecap="round" stroke-miterlimit="10" stroke-width="0.376"/>
            <path id="패스_825" data-name="패스 825" d="M376.253,50.382a16.667,16.667,0,0,1-7.016-2.511" transform="translate(-358.254 -32.247)" fill="none" stroke="#aec458" stroke-linecap="round" stroke-miterlimit="10" stroke-width="0.376"/>
            <path id="패스_826" data-name="패스 826" d="M370.574,38.618s.118,9.214-5.883,12.4" transform="translate(-359.172 -34.115)" fill="none" stroke="#aec458" stroke-linecap="round" stroke-miterlimit="10" stroke-width="0.376"/>
            <line id="선_41" data-name="선 41" x2="0.958" y2="5.038" transform="translate(8.205 8.266)" fill="none" stroke="#aec458" stroke-linecap="round" stroke-miterlimit="10" stroke-width="0.376"/>
            <path id="패스_827" data-name="패스 827" d="M373.061,52.743s-5.175-3.318-9.248-3.68" transform="translate(-359.349 -32.007)" fill="none" stroke="#aec458" stroke-linecap="round" stroke-miterlimit="10" stroke-width="0.376"/>
          </g>
          <g id="그룹_428" data-name="그룹 428">
            <path id="패스_828" data-name="패스 828" d="M364,54.4a17.349,17.349,0,0,1,5.965-2.142c3.408-.529,5.27-1.7,5.561-2.663a2.275,2.275,0,0,0-.451-1.876,1.619,1.619,0,0,0,.281-2.4,3.255,3.255,0,0,0-2.965-1s2.691-2.932,5.1-3.857,5.4-2.61,6.024-4.1-1.427-2.06-1.427-2.06,2.984-3.63-.1-5.861-4.741-.536-4.741-.536a3.417,3.417,0,0,0-3.619-.9c-2.454.625-4.274,6.316-4.274,6.316a3.329,3.329,0,0,0-2.387-1.88,2.923,2.923,0,0,0-2.514,1.531s-1.655-1.875-2.886.155-.371,6.129-.371,6.129-1.517-1.288-2.529.136,1.884,6.663,1.975,10.3.1,6.5.618,7.269S361.949,55.618,364,54.4Z" transform="translate(-358.459 -26.856)" fill="#aec458"/>
            <path id="패스_829" data-name="패스 829" d="M367.623,32.912a2.528,2.528,0,0,0-.958-1.4c-.689-.379-1.305.623-.881,1.753a4.607,4.607,0,0,0,1.309,1.821A10.843,10.843,0,0,0,367.623,32.912Z" transform="translate(-357.008 -25.933)" fill="#fff" opacity="0.1"/>
            <path id="패스_830" data-name="패스 830" d="M378.443,29.778c1.166.053,1.454,1.65.994,2.716a2.475,2.475,0,0,1-1.381,1.357s1.362.166,1.351,1.139-1.5.589-3.245.163a33.889,33.889,0,0,0-4.253-.633S377.276,29.724,378.443,29.778Z" transform="translate(-355.744 -26.267)" fill="#fff" opacity="0.1"/>
            <path id="패스_831" data-name="패스 831" d="M366.662,41.908s1.785-2.47,3.143-3.133a19.842,19.842,0,0,1,4.268-1.091,8.641,8.641,0,0,0-3.025,2.277C370.063,41.333,368.128,42.315,366.662,41.908Z" transform="translate(-356.803 -24.671)" fill="#fff" opacity="0.1"/>
            <path id="패스_832" data-name="패스 832" d="M369.672,46.993a20.609,20.609,0,0,0-3.441-.836,7.841,7.841,0,0,0-2.245.357,7.75,7.75,0,0,1,1.792,1.071C366.614,48.269,369.291,48.119,369.672,46.993Z" transform="translate(-357.343 -22.961)" fill="#fff" opacity="0.1"/>
            <path id="패스_833" data-name="패스 833" d="M363.13,45.548A10.766,10.766,0,0,0,363.8,42.8a7.116,7.116,0,0,0-1.195-3.22,2.218,2.218,0,0,0-.552,1.844C362.224,42.572,363.13,45.548,363.13,45.548Z" transform="translate(-357.739 -24.287)" fill="#fff" opacity="0.1"/>
            <path id="패스_834" data-name="패스 834" d="M366.3,35.917a11.8,11.8,0,0,0-2.255,4.351" transform="translate(-357.331 -25.028)" fill="none" stroke="#82a334" stroke-linecap="round" stroke-miterlimit="10" stroke-width="0.348"/>
            <path id="패스_835" data-name="패스 835" d="M361.178,56.421a43.3,43.3,0,0,1,7.467-16.447c5.9-7.8,10.231-10.547,10.231-10.547" transform="translate(-357.91 -26.337)" fill="none" stroke="#82a334" stroke-linecap="round" stroke-miterlimit="10" stroke-width="0.348"/>
            <path id="패스_836" data-name="패스 836" d="M372.414,29.658s-2.12,3.462-1.931,5.744" transform="translate(-356.034 -26.291)" fill="none" stroke="#82a334" stroke-linecap="round" stroke-miterlimit="10" stroke-width="0.348"/>
            <path id="패스_837" data-name="패스 837" d="M374.9,36.041a38.038,38.038,0,0,0-7.51,2.6" transform="translate(-356.656 -25.003)" fill="none" stroke="#82a334" stroke-linecap="round" stroke-miterlimit="10" stroke-width="0.348"/>
            <path id="패스_838" data-name="패스 838" d="M363.806,35.212a18.99,18.99,0,0,0,1.226,8.4" transform="translate(-357.393 -25.17)" fill="none" stroke="#82a334" stroke-linecap="round" stroke-miterlimit="10" stroke-width="0.348"/>
            <path id="패스_839" data-name="패스 839" d="M370.458,44.4s-5.918.5-7.852,3.176" transform="translate(-357.622 -23.316)" fill="none" stroke="#82a334" stroke-linecap="round" stroke-miterlimit="10" stroke-width="0.348"/>
            <line id="선_42" data-name="선 42" x1="4.025" y1="1.167" transform="translate(8.232 22.108)" fill="none" stroke="#82a334" stroke-linecap="round" stroke-miterlimit="10" stroke-width="0.348"/>
            <path id="패스_840" data-name="패스 840" d="M360.574,38.709s2.543,6.526,2.031,11.157" transform="translate(-358.032 -24.464)" fill="none" stroke="#82a334" stroke-linecap="round" stroke-miterlimit="10" stroke-width="0.348"/>
          </g>
        </g>
        <g id="그룹_431" data-name="그룹 431" transform="translate(148.321 143.893)">
          <g id="그룹_430" data-name="그룹 430">
            <path id="패스_841" data-name="패스 841" d="M431.3,169.529c.983-1.177-1.381-3.081-1.381-3.081l3.88-2.012a4.963,4.963,0,0,0,2.07-1.988,2.21,2.21,0,0,0,.323-1.743,2.919,2.919,0,0,0-2.13-1.6s4.423-2.818,4.4-5.042a3,3,0,0,0-1.574-2.87s1.067-1.79-1.517-3.9-5,1.231-5,1.231-.943-1.61-2.067-.749c-.8.608-1.409,2.246-1.787,3.949a3.609,3.609,0,0,0-1.9-2.565,2.138,2.138,0,0,0-2.912,1.467,2.559,2.559,0,0,0-3.664-.1c-1.939,1.744-.543,4.622-.543,4.622s-1.851-.466-2.02,2.328,2.812,4.8,2.275,9.04a13.089,13.089,0,0,1-.392,1.854c-.572,2.017-2.332,2.636-1.562,2.9s3.2-.367,6.308-1.1S430.316,170.707,431.3,169.529Z" transform="translate(-415.476 -146.584)" fill="#82a334"/>
            <path id="패스_842" data-name="패스 842" d="M422.743,152.365s2.008,7.365-.019,11.481" transform="translate(-414.013 -145.417)" fill="none" stroke="#aec458" stroke-linecap="round" stroke-miterlimit="10" stroke-width="0.376"/>
            <path id="패스_843" data-name="패스 843" d="M425.207,153.122a8.963,8.963,0,0,1-1.731,5.518" transform="translate(-413.862 -145.265)" fill="none" stroke="#aec458" stroke-linecap="round" stroke-miterlimit="10" stroke-width="0.376"/>
            <path id="패스_844" data-name="패스 844" d="M428.71,159.188a10.365,10.365,0,0,1-3.188,2.887" transform="translate(-413.449 -144.04)" fill="none" stroke="#aec458" stroke-linecap="round" stroke-miterlimit="10" stroke-width="0.376"/>
            <path id="패스_845" data-name="패스 845" d="M415.681,170.324a38,38,0,0,0,12.289-10.018c5.3-6.752,6.662-11.045,6.662-11.045" transform="translate(-415.435 -146.044)" fill="none" stroke="#aec458" stroke-linecap="round" stroke-miterlimit="10" stroke-width="0.376"/>
            <path id="패스_846" data-name="패스 846" d="M432.853,152.552s-2.465,2.574-4.442,2.925" transform="translate(-412.866 -145.38)" fill="none" stroke="#aec458" stroke-linecap="round" stroke-miterlimit="10" stroke-width="0.376"/>
            <path id="패스_847" data-name="패스 847" d="M426.43,152.663a33.333,33.333,0,0,1-.524,6.956" transform="translate(-413.371 -145.357)" fill="none" stroke="#aec458" stroke-linecap="round" stroke-miterlimit="10" stroke-width="0.376"/>
            <path id="패스_848" data-name="패스 848" d="M430.492,160.834a16.672,16.672,0,0,1-7.4.84" transform="translate(-413.94 -143.708)" fill="none" stroke="#aec458" stroke-linecap="round" stroke-miterlimit="10" stroke-width="0.376"/>
            <path id="패스_849" data-name="패스 849" d="M419.322,153.073s4.168,8.219.185,13.721" transform="translate(-414.7 -145.274)" fill="none" stroke="#aec458" stroke-linecap="round" stroke-miterlimit="10" stroke-width="0.376"/>
            <line id="선_43" data-name="선 43" x2="3.081" y2="4.099" transform="translate(3.411 12.585)" fill="none" stroke="#aec458" stroke-linecap="round" stroke-miterlimit="10" stroke-width="0.376"/>
            <path id="패스_850" data-name="패스 850" d="M428.669,164.378s-6.109-.7-9.924.774" transform="translate(-414.816 -143.026)" fill="none" stroke="#aec458" stroke-linecap="round" stroke-miterlimit="10" stroke-width="0.376"/>
          </g>
        </g>
        <g id="그룹_432" data-name="그룹 432" transform="translate(121.907 28.433)">
          <path id="패스_851" data-name="패스 851" d="M415.208,60.683c0-6-4.86-10.169-10.855-10.169S393.5,54.687,393.5,60.683s4.86,9.847,10.855,9.847S415.208,66.677,415.208,60.683Z" transform="translate(-393.498 -50.514)" fill="#cd4233"/>
          <path id="패스_852" data-name="패스 852" d="M404.046,51.673a2.6,2.6,0,0,0-1.215.2,1.964,1.964,0,0,0-.917,2.083,4.212,4.212,0,0,0,1.185,2.091,10.389,10.389,0,0,0,5.646,3.109,2.7,2.7,0,0,0,1.943-.187c1.824-1.155.476-3.557-.543-4.64A9.269,9.269,0,0,0,404.046,51.673Z" transform="translate(-391.805 -50.28)" fill="#fff" opacity="0.2"/>
          <path id="패스_853" data-name="패스 853" d="M403.367,59.088a6.964,6.964,0,0,0-2.1-2.252,5.681,5.681,0,0,0-3.047-.935,5.006,5.006,0,0,0,1.809,2.564,4.673,4.673,0,0,0,2.676,1.131,6.607,6.607,0,0,0-2.375,1.621,4.326,4.326,0,0,0-.979,2.714,4.933,4.933,0,0,0,2.562-.679c1.018-.716,1.659-3.213,1.659-3.213a7.727,7.727,0,0,0,1.584,2.5,5.684,5.684,0,0,0,2.714.641,7.669,7.669,0,0,0-1.168-2.2,6.333,6.333,0,0,0-2.715-1.64,5.5,5.5,0,0,0,2.526-.9,4.174,4.174,0,0,0,1.357-2.225,4.933,4.933,0,0,0-2.763.612A3.539,3.539,0,0,0,403.367,59.088Z" transform="translate(-392.544 -49.427)" fill="#82a334"/>
          <path id="패스_854" data-name="패스 854" d="M396.49,62.263a.945.945,0,0,0-.695.334.747.747,0,0,0-.036.693,2.048,2.048,0,0,0,.417.588,6.9,6.9,0,0,0,3.459,2.294.968.968,0,0,0,.726-.056.728.728,0,0,0,.276-.727,1.961,1.961,0,0,0-.337-.743C399.471,63.37,398.139,62.063,396.49,62.263Z" transform="translate(-393.055 -48.147)" fill="#fff" opacity="0.2"/>
        </g>
        <g id="그룹_433" data-name="그룹 433" transform="translate(41.994 149.22)">
          <path id="패스_855" data-name="패스 855" d="M330.55,151.042a4,4,0,1,0,4.423,3.519A4,4,0,0,0,330.55,151.042Z" transform="translate(-327.005 -151.017)" fill="#7397d0"/>
          <path id="패스_856" data-name="패스 856" d="M329.86,152.694a2.815,2.815,0,1,0,.948.5A.956.956,0,0,0,329.86,152.694Z" transform="translate(-326.694 -150.679)" fill="#9abad7"/>
          <path id="패스_857" data-name="패스 857" d="M329.835,152.973a1.1,1.1,0,1,0,1.216.969A1.1,1.1,0,0,0,329.835,152.973Z" transform="translate(-326.631 -150.623)" fill="#25170f"/>
          <path id="패스_858" data-name="패스 858" d="M331.508,156.1c-.946.919-1.26,1.705-.215,1.514a3.053,3.053,0,0,0,2.374-2.451C333.673,154.049,331.968,155.652,331.508,156.1Z" transform="translate(-326.272 -150.258)" fill="#fff" opacity="0.2"/>
          <path id="패스_859" data-name="패스 859" d="M327.848,152.844c-.3.663-.213.9.671.457s2.387-1.276,1.457-1.461A2.518,2.518,0,0,0,327.848,152.844Z" transform="translate(-326.867 -150.855)" fill="#fff" opacity="0.2"/>
        </g>
        <g id="그룹_434" data-name="그룹 434" transform="translate(59.562 9.776)">
          <path id="패스_860" data-name="패스 860" d="M345.168,35.016a4,4,0,1,0,4.422,3.519A3.995,3.995,0,0,0,345.168,35.016Z" transform="translate(-341.623 -34.991)" fill="#7397d0"/>
          <path id="패스_861" data-name="패스 861" d="M344.478,36.668a.956.956,0,0,0-.812.695.956.956,0,0,0,.2,1.762.955.955,0,0,0,1.761-.2.955.955,0,0,0-.2-1.761A.957.957,0,0,0,344.478,36.668Z" transform="translate(-341.312 -34.653)" fill="#9abad7"/>
          <path id="패스_862" data-name="패스 862" d="M344.453,36.947a1.1,1.1,0,1,0,1.216.969A1.1,1.1,0,0,0,344.453,36.947Z" transform="translate(-341.249 -34.597)" fill="#25170f"/>
          <path id="패스_863" data-name="패스 863" d="M346.126,40.074c-.946.919-1.261,1.705-.216,1.514a3.055,3.055,0,0,0,2.375-2.451C348.291,38.023,346.586,39.626,346.126,40.074Z" transform="translate(-340.89 -34.232)" fill="#fff" opacity="0.2"/>
          <path id="패스_864" data-name="패스 864" d="M342.466,36.818c-.3.663-.213.9.669.458s2.388-1.278,1.458-1.463A2.517,2.517,0,0,0,342.466,36.818Z" transform="translate(-341.485 -34.829)" fill="#fff" opacity="0.2"/>
        </g>
        <g id="그룹_435" data-name="그룹 435" transform="translate(53.745 32.894)">
          <path id="패스_865" data-name="패스 865" d="M344.776,58.223a4,4,0,1,0-4,4A4,4,0,0,0,344.776,58.223Z" transform="translate(-336.783 -54.226)" fill="#7397d0"/>
          <path id="패스_866" data-name="패스 866" d="M342.324,57.3a2.81,2.81,0,1,0-.6.886A.956.956,0,0,0,342.324,57.3Z" transform="translate(-336.264 -53.905)" fill="#9abad7"/>
          <path id="패스_867" data-name="패스 867" d="M341.913,57.236a1.1,1.1,0,1,0-1.1,1.1A1.1,1.1,0,0,0,341.913,57.236Z" transform="translate(-336.191 -53.841)" fill="#25170f"/>
          <path id="패스_868" data-name="패스 868" d="M338.716,58.572c-.806-1.043-1.553-1.445-1.481-.385a3.054,3.054,0,0,0,2.167,2.636C340.509,60.956,339.108,59.081,338.716,58.572Z" transform="translate(-336.693 -53.552)" fill="#fff" opacity="0.2"/>
          <path id="패스_869" data-name="패스 869" d="M342.167,55.284c-.625-.373-.868-.312-.53.614s1,2.515,1.288,1.613A2.519,2.519,0,0,0,342.167,55.284Z" transform="translate(-335.834 -54.056)" fill="#fff" opacity="0.2"/>
        </g>
      </g>
    </g>
  </g>
</svg>
