<svg xmlns="http://www.w3.org/2000/svg" width="276" height="276" viewBox="0 0 276 276">
  <g id="그룹_715" data-name="그룹 715" transform="translate(-413 -860)">
    <circle id="타원_4" data-name="타원 4" cx="138" cy="138" r="138" transform="translate(413 860)" fill="#ffbebe"/>
    <g id="그룹_419" data-name="그룹 419" transform="translate(467 914)">
      <g id="그룹_405" data-name="그룹 405" transform="translate(0 8.798)">
        <path id="패스_645" data-name="패스 645" d="M83.961,76.444S64.048,92.733,68,109.044s34.692,19.877,51.5-2.489S83.961,76.444,83.961,76.444Z" transform="translate(-67.484 -62.896)" fill="#25170f"/>
        <circle id="타원_516" data-name="타원 516" cx="25.245" cy="25.245" r="25.245" transform="translate(12.134)" fill="#9abad7"/>
        <circle id="타원_517" data-name="타원 517" cx="20.903" cy="20.903" r="20.903" transform="translate(16.476 4.342)" fill="#7397d0"/>
        <circle id="타원_518" data-name="타원 518" cx="18.917" cy="18.917" r="18.917" transform="translate(18.463 6.328)" fill="#f1d04c"/>
        <path id="패스_646" data-name="패스 646" d="M98.08,76.962a1.366,1.366,0,1,0-1.367,1.367A1.366,1.366,0,0,0,98.08,76.962Z" transform="translate(-62.2 -63.057)" fill="#e8ab2d"/>
        <path id="패스_647" data-name="패스 647" d="M103.52,92.478a1.366,1.366,0,1,0-1.367,1.367A1.367,1.367,0,0,0,103.52,92.478Z" transform="translate(-61.168 -60.115)" fill="#e8ab2d"/>
        <path id="패스_648" data-name="패스 648" d="M106.421,80.07a1.366,1.366,0,1,0-1.367,1.367A1.366,1.366,0,0,0,106.421,80.07Z" transform="translate(-60.618 -62.468)" fill="#e8ab2d"/>
        <path id="패스_649" data-name="패스 649" d="M94.7,97.682a1.366,1.366,0,1,0-1.366,1.366A1.366,1.366,0,0,0,94.7,97.682Z" transform="translate(-62.841 -59.128)" fill="#e8ab2d"/>
        <path id="패스_650" data-name="패스 650" d="M92.111,86.936A1.366,1.366,0,1,0,90.745,88.3,1.366,1.366,0,0,0,92.111,86.936Z" transform="translate(-63.332 -61.166)" fill="#e8ab2d"/>
        <path id="패스_651" data-name="패스 651" d="M91.91,85.476a.737.737,0,1,0-.738.736A.737.737,0,0,0,91.91,85.476Z" transform="translate(-63.131 -61.323)" fill="#e8ab2d"/>
        <path id="패스_652" data-name="패스 652" d="M101.43,93a.737.737,0,1,0-.738.736A.738.738,0,0,0,101.43,93Z" transform="translate(-61.325 -59.897)" fill="#e8ab2d"/>
        <circle id="타원_519" data-name="타원 519" cx="0.737" cy="0.737" r="0.737" transform="translate(37.579 23.208)" fill="#e8ab2d"/>
        <path id="패스_653" data-name="패스 653" d="M85.571,90.78a.737.737,0,1,0-.736.736A.736.736,0,0,0,85.571,90.78Z" transform="translate(-64.333 -60.318)" fill="#e8ab2d"/>
        <path id="패스_654" data-name="패스 654" d="M86.19,85.068a.736.736,0,1,0-.736.736A.737.737,0,0,0,86.19,85.068Z" transform="translate(-64.216 -61.401)" fill="#e8ab2d"/>
        <path id="패스_655" data-name="패스 655" d="M90.852,94.121a.737.737,0,1,0-.736.736A.737.737,0,0,0,90.852,94.121Z" transform="translate(-63.332 -59.684)" fill="#e8ab2d"/>
        <path id="패스_656" data-name="패스 656" d="M107.157,79.969a.737.737,0,1,0-.738.738A.737.737,0,0,0,107.157,79.969Z" transform="translate(-60.239 -62.367)" fill="#e8ab2d"/>
        <circle id="타원_520" data-name="타원 520" cx="0.737" cy="0.737" r="0.737" transform="translate(50.342 20.461)" fill="#e8ab2d"/>
        <circle id="타원_521" data-name="타원 521" cx="0.737" cy="0.737" r="0.737" transform="translate(31.12 19.418)" fill="#e8ab2d"/>
        <path id="패스_657" data-name="패스 657" d="M108.558,76.1a.737.737,0,1,0-.736.736A.737.737,0,0,0,108.558,76.1Z" transform="translate(-59.974 -63.101)" fill="#e8ab2d"/>
        <circle id="타원_522" data-name="타원 522" cx="0.737" cy="0.737" r="0.737" transform="translate(31.857 30.89)" fill="#e8ab2d"/>
        <path id="패스_658" data-name="패스 658" d="M94.5,98.836a.737.737,0,1,0-.736.736A.737.737,0,0,0,94.5,98.836Z" transform="translate(-62.64 -58.79)" fill="#e8ab2d"/>
        <circle id="타원_523" data-name="타원 523" cx="0.737" cy="0.737" r="0.737" transform="translate(40.248 9.001)" fill="#e8ab2d"/>
        <path id="패스_659" data-name="패스 659" d="M100.378,98.94a.737.737,0,1,0-.736.736A.736.736,0,0,0,100.378,98.94Z" transform="translate(-61.525 -58.77)" fill="#e8ab2d"/>
        <circle id="타원_524" data-name="타원 524" cx="0.737" cy="0.737" r="0.737" transform="translate(50.342 26.399)" fill="#e8ab2d"/>
        <circle id="타원_525" data-name="타원 525" cx="0.737" cy="0.737" r="0.737" transform="translate(29.124 12.073)" fill="#e8ab2d"/>
        <circle id="타원_526" data-name="타원 526" cx="0.737" cy="0.737" r="0.737" transform="translate(45.803 38.14)" fill="#e8ab2d"/>
        <path id="패스_660" data-name="패스 660" d="M109.707,92.377a.737.737,0,1,0-.738.738A.737.737,0,0,0,109.707,92.377Z" transform="translate(-59.756 -60.014)" fill="#e8ab2d"/>
        <path id="패스_661" data-name="패스 661" d="M105.162,86.215a.737.737,0,1,0-.736.738A.736.736,0,0,0,105.162,86.215Z" transform="translate(-60.618 -61.183)" fill="#e8ab2d"/>
        <path id="패스_662" data-name="패스 662" d="M89.314,78.922a1.366,1.366,0,1,0-1.366,1.366A1.366,1.366,0,0,0,89.314,78.922Z" transform="translate(-63.862 -62.686)" fill="#e8ab2d"/>
        <path id="패스_663" data-name="패스 663" d="M110.437,88.084a1.366,1.366,0,1,0-1.367,1.367A1.367,1.367,0,0,0,110.437,88.084Z" transform="translate(-59.856 -60.948)" fill="#e8ab2d"/>
        <path id="패스_664" data-name="패스 664" d="M119.5,89.293a18.919,18.919,0,0,0-29.48-15.7,24.821,24.821,0,0,1,20.1,8.052c5.708,6.34,7.315,11.929,7.648,15.545A18.84,18.84,0,0,0,119.5,89.293Z" transform="translate(-63.209 -64.047)" fill="#e8ab2d"/>
      </g>
      <path id="패스_665" data-name="패스 665" d="M200.628,175.119s-.02,6.727-.739,8.818-13.951,7.679-18.049,7.224-3.916-8.524-7.03-10.173-14.959,2.626-21.232,4.006-12.513,2.64-13.35,5.7,1.348,8.8-2.327,11.327-18.612,9.052-23.4,3.847-7.044-17.3-8.958-24.383,3.791-9.984,8.941-11.889,4.636,3.966,19.753,3.219,28.551-4.2,29.768-7.974-.81-5.022.966-7.511,5.528-4.094,9.49-5.44,11.813-4.266,14.465-2.345S200.628,175.119,200.628,175.119Z" transform="translate(-60.339 -40.356)" fill="#25170f"/>
      <path id="패스_666" data-name="패스 666" d="M138.2,110.123s-12.924,15.219,0,27.713,29.645,1.293,31.629-9.5S138.2,110.123,138.2,110.123Z" transform="translate(-55.162 -47.711)" fill="#25170f"/>
      <g id="그룹_406" data-name="그룹 406" transform="translate(51.079 51.167)">
        <path id="패스_667" data-name="패스 667" d="M113.473,106.05s-6.135,6.109-1.011,10.082,11.352-1.688,12.1-4.8S113.473,106.05,113.473,106.05Z" transform="translate(-110.42 -99.651)" fill="#25170f"/>
        <path id="패스_668" data-name="패스 668" d="M126.635,108.052a7.381,7.381,0,1,0-7.381,7.381A7.38,7.38,0,0,0,126.635,108.052Z" transform="translate(-110.144 -100.671)" fill="#7397d0"/>
        <path id="패스_669" data-name="패스 669" d="M122.154,106.377a2.381,2.381,0,0,0-4.379-1.636,2.38,2.38,0,1,0,3.273,3.273A1.765,1.765,0,0,0,122.154,106.377Z" transform="translate(-109.234 -100.109)" fill="#9abad7"/>
        <circle id="타원_527" data-name="타원 527" cx="2.031" cy="2.031" r="2.031" transform="translate(8.236 4.238)" fill="#25170f"/>
        <path id="패스_670" data-name="패스 670" d="M115.45,108.76c-1.491-1.926-2.868-2.667-2.735-.711s1.957,4.624,4,4.869S116.176,109.7,115.45,108.76Z" transform="translate(-109.986 -99.49)" fill="#fff" opacity="0.2"/>
        <path id="패스_671" data-name="패스 671" d="M121.9,102.64c-1.154-.689-1.6-.578-.978,1.134s1.845,4.646,2.378,2.979S122.375,102.921,121.9,102.64Z" transform="translate(-108.481 -100.373)" fill="#fff" opacity="0.2"/>
      </g>
      <g id="그룹_407" data-name="그룹 407" transform="translate(65.211 58.446)">
        <path id="패스_672" data-name="패스 672" d="M125.353,111.986s-6.135,6.109-1.012,10.084,11.353-1.689,12.106-4.8S125.353,111.986,125.353,111.986Z" transform="translate(-122.299 -105.804)" fill="#25170f"/>
        <circle id="타원_528" data-name="타원 528" cx="7.381" cy="7.381" r="7.381" transform="translate(1.384)" fill="#7397d0"/>
        <path id="패스_673" data-name="패스 673" d="M133.743,112.5a2.38,2.38,0,0,0-4.378-1.637,2.38,2.38,0,1,0,3.273,3.273A1.764,1.764,0,0,0,133.743,112.5Z" transform="translate(-121.169 -106.227)" fill="#9abad7"/>
        <circle id="타원_529" data-name="타원 529" cx="2.031" cy="2.031" r="2.031" transform="translate(7.891 4.239)" fill="#25170f"/>
        <path id="패스_674" data-name="패스 674" d="M127.04,114.88c-1.491-1.927-2.868-2.668-2.735-.713s1.957,4.625,4,4.869S127.766,115.817,127.04,114.88Z" transform="translate(-121.921 -105.609)" fill="#fff" opacity="0.2"/>
        <path id="패스_675" data-name="패스 675" d="M133.494,108.759c-1.155-.689-1.6-.578-.978,1.134s1.845,4.647,2.378,2.979S133.965,109.04,133.494,108.759Z" transform="translate(-120.415 -106.491)" fill="#fff" opacity="0.2"/>
      </g>
      <g id="그룹_408" data-name="그룹 408" transform="translate(65.297 0)">
        <path id="패스_676" data-name="패스 676" d="M131.9,65.056s-8.152,10.978-9.47,12.81,19.56,22.675,28.6,26.067,30.4,7.694,36.732,7.429,8.75-12.52,8.75-12.52Z" transform="translate(-122.371 -56.258)" fill="#25170f"/>
        <path id="패스_677" data-name="패스 677" d="M191.418,109.236l8.988-13.824s-6.084-7.071-13.109-16.42S165.1,61.2,154.2,61.32a48.823,48.823,0,0,1-19.1-3.659l-11.21,22.172s4.2,4.195,15.971,13.183,45.57,18.874,45.57,18.874S187.717,112.179,191.418,109.236Z" transform="translate(-122.084 -57.661)" fill="#945c3c"/>
        <line id="선_37" data-name="선 37" x2="18.877" y2="7.643" transform="translate(30.453 26.4)" fill="none" stroke="#fff" stroke-linecap="round" stroke-miterlimit="10" stroke-width="1.696" opacity="0.3"/>
        <path id="패스_678" data-name="패스 678" d="M161.191,90.069s10.337,3.314,16,4.029" transform="translate(-115.008 -51.515)" fill="none" stroke="#fff" stroke-linecap="round" stroke-miterlimit="10" stroke-width="1.696" opacity="0.3"/>
        <path id="패스_679" data-name="패스 679" d="M145.476,69.854s13.572,4.974,22.291,8.658" transform="translate(-117.989 -55.349)" fill="none" stroke="#fff" stroke-linecap="round" stroke-miterlimit="10" stroke-width="1.696" opacity="0.3"/>
        <path id="패스_680" data-name="패스 680" d="M153.711,67.462s12.224,2.7,19.865,9.347" transform="translate(-116.427 -55.802)" fill="none" stroke="#fff" stroke-linecap="round" stroke-miterlimit="10" stroke-width="1.696" opacity="0.3"/>
        <line id="선_38" data-name="선 38" x2="16.479" y2="6.497" transform="translate(31.861 21.337)" fill="none" stroke="#fff" stroke-linecap="round" stroke-miterlimit="10" stroke-width="1.696" opacity="0.3"/>
        <path id="패스_681" data-name="패스 681" d="M131.924,59.176s8.121,4.793,25.334,7.07,27.417,13.663,31.612,19.535" transform="translate(-120.559 -57.374)" fill="none" stroke="#e8ab2d" stroke-linecap="round" stroke-miterlimit="10" stroke-width="1.696"/>
        <path id="패스_682" data-name="패스 682" d="M126.648,71.416a123.272,123.272,0,0,0,32.046,21.272c19.415,8.868,31.176,11.208,31.176,11.208" transform="translate(-121.56 -55.052)" fill="none" stroke="#e8ab2d" stroke-linecap="round" stroke-miterlimit="10" stroke-width="1.696"/>
        <path id="패스_683" data-name="패스 683" d="M131.092,69.854s9.741,4.794,30.594,13.183,32,18.3,32,18.3" transform="translate(-120.717 -55.349)" fill="none" stroke="#e8ab2d" stroke-linecap="round" stroke-miterlimit="10" stroke-width="1.696"/>
        <path id="패스_684" data-name="패스 684" d="M138.474,69.854s39.31,14.062,46.74,19.255,10.208,7.4,10.208,7.4" transform="translate(-119.317 -55.349)" fill="none" stroke="#e8ab2d" stroke-linecap="round" stroke-miterlimit="10" stroke-width="1.696"/>
        <path id="패스_685" data-name="패스 685" d="M129.086,78.921s17.123,15.2,41.341,17.5" transform="translate(-121.097 -53.629)" fill="none" stroke="#e8ab2d" stroke-linecap="round" stroke-miterlimit="10" stroke-width="1.696"/>
        <path id="패스_686" data-name="패스 686" d="M142.285,79.223s24.091,13.787,40.159,13.725" transform="translate(-118.594 -53.572)" fill="none" stroke="#e8ab2d" stroke-linecap="round" stroke-miterlimit="10" stroke-width="1.696"/>
        <path id="패스_687" data-name="패스 687" d="M130.494,63.227A333.953,333.953,0,0,1,162.5,72.969,66.775,66.775,0,0,1,191.271,93.58" transform="translate(-120.83 -56.605)" fill="none" stroke="#e8ab2d" stroke-linecap="round" stroke-miterlimit="10" stroke-width="1.696"/>
      </g>
      <g id="그룹_409" data-name="그룹 409" transform="translate(4.298 65.812)">
        <path id="패스_688" data-name="패스 688" d="M72.527,119.834s-4.064,5.535,1.508,8.5a31.878,31.878,0,0,0,10.444,3.482s-3.857,6.465,6.512,6.748,12.471-.554,12.471-.554-1.206,5.8,8.952,9.071,46.736,5.951,51.907,3.084,5.785-6.505,5.477-6.3S72.527,119.834,72.527,119.834Z" transform="translate(-71.097 -111.682)" fill="#25170f"/>
        <path id="패스_689" data-name="패스 689" d="M108.072,131.981s-11.631,4.408-17.581,2.649-.843-4.84-.843-4.84-17.59,1.548-18.318-8.878,24.466-.824,24.466-.824-3.335-4.786-.093-6.9,14.667,12.489,14.667,12.489Z" transform="translate(-71.056 -112.981)" fill="#aec458"/>
        <path id="패스_690" data-name="패스 690" d="M98.633,128.523s-1.447,6.337,1.724,9.691,62.822,15.225,66.016,6.092-50.886-27.623-56.45-28.553S100.6,121.139,98.633,128.523Z" transform="translate(-65.937 -112.473)" fill="#e8ab2d"/>
        <path id="패스_691" data-name="패스 691" d="M107.015,138.2c-1.105-2.637-1.77-5.74-.483-8.293" transform="translate(-64.51 -109.772)" fill="none" stroke="#945c3c" stroke-miterlimit="10" stroke-width="0.304"/>
        <path id="패스_692" data-name="패스 692" d="M121.406,119.834c-1.4,2.131-2.743,3.6-3.544,7.064" transform="translate(-62.227 -111.682)" fill="none" stroke="#945c3c" stroke-miterlimit="10" stroke-width="0.304"/>
        <path id="패스_693" data-name="패스 693" d="M125.7,141.8a6.382,6.382,0,0,1-1.463-4.4,12.8,12.8,0,0,1,1.133-4.584" transform="translate(-61.019 -109.22)" fill="none" stroke="#945c3c" stroke-miterlimit="10" stroke-width="0.304"/>
        <path id="패스_694" data-name="패스 694" d="M142.431,128.623a15.362,15.362,0,0,0-4.335,7.717" transform="translate(-58.39 -110.015)" fill="none" stroke="#945c3c" stroke-miterlimit="10" stroke-width="0.304"/>
        <path id="패스_695" data-name="패스 695" d="M146.549,142.943a14.757,14.757,0,0,1-.067-5.025" transform="translate(-56.834 -108.252)" fill="none" stroke="#945c3c" stroke-miterlimit="10" stroke-width="0.304"/>
        <path id="패스_696" data-name="패스 696" d="M109.686,120.535c-1.666-.07-3.688.048-4.481,1.514a2.931,2.931,0,0,0,.05,2.607,6.748,6.748,0,0,0,1.71,2.071c3.939,3.486,9.046,5.287,14.015,7.009,9.812,3.4,19.886,6.844,30.268,6.6,1.11-.025,2.477-.284,2.793-1.349.27-.907-.431-1.794-1.105-2.457a44.293,44.293,0,0,0-15.525-9.429c-2.891-1.094-5.848-1.946-8.828-2.755-2.6-.707-4.9-2.051-7.558-2.651A63.819,63.819,0,0,0,109.686,120.535Z" transform="translate(-64.682 -111.552)" fill="#fff" opacity="0.2"/>
      </g>
      <g id="그룹_410" data-name="그룹 410" transform="translate(5.201 98.339)">
        <path id="패스_697" data-name="패스 697" d="M159.334,145.6s3.256,1.392,1.965,3.563-4.677,3.481-4.677,3.481S151.3,174.834,121.817,174s-35.781-7.724-40.464-11.552-6.225-7.013-6.225-7.013l-3.2-2.008,1.627-2.132s25,10.11,47.153,4.993S159.334,145.6,159.334,145.6Z" transform="translate(-71.843 -139.323)" fill="#25170f"/>
        <path id="패스_698" data-name="패스 698" d="M151.014,146.118a16.014,16.014,0,0,0-9.185-3.608c-5.168-.093-14.049,6.913-27.543,8.389s-24.212-4.058-27.964-3.708a87.045,87.045,0,0,0-11.054,2.421l-1.557,3.03A26.952,26.952,0,0,0,86.5,164.779c9.341,4.335,24.93,8.957,42.283,5.813a36.5,36.5,0,0,0,25.356-17.179,17.36,17.36,0,0,0,1.719-3.715l4.993-2.954-1.681-6.421Z" transform="translate(-71.504 -140.323)" fill="#f1d04c"/>
        <path id="패스_699" data-name="패스 699" d="M148.383,148.659s-11.938,22.871-39.351,16.781-33.157-14.79-33.157-14.79,16.56,10.116,36.753,9.959S145.08,153.551,148.383,148.659Z" transform="translate(-71.094 -138.742)" fill="#fff" opacity="0.4"/>
        <path id="패스_700" data-name="패스 700" d="M150.014,146.845s-3.794,7.911-17.085,11.46-23.588,3.606-36,.9-21.786-7.81-21.981-9.547" transform="translate(-71.269 -139.086)" fill="none" stroke="#945c3c" stroke-miterlimit="10" stroke-width="0.204"/>
        <path id="패스_701" data-name="패스 701" d="M76.511,147.983l-3.283-.371-1.372,2.937,3.22,2.4A10.949,10.949,0,0,1,76.511,147.983Z" transform="translate(-71.856 -138.941)" fill="#945c3c"/>
      </g>
      <g id="그룹_413" data-name="그룹 413" transform="translate(109.334 48.238)">
        <path id="패스_702" data-name="패스 702" d="M212.994,130.94l-4.944,5.012s1.855,3.382,0,5.552-9.046,6.429-11.444,6.429,1.018,3.781.389,4.587-1.074,2.886-5.8,1.217-17.794-1.579-17.794-1.579a5.347,5.347,0,0,1-4.083-2.73c-1.63-2.664-4.321-11.18-7.846-15.954s-1.814-6.663,1.212-6.752S212.994,130.94,212.994,130.94Z" transform="translate(-159.365 -92.802)" fill="#25170f"/>
        <g id="그룹_411" data-name="그룹 411" transform="translate(9.675 19.026)">
          <path id="패스_703" data-name="패스 703" d="M196.432,154.868c2.243-1.731-1.259-6.11-1.259-6.11l7.8-2.077a9.147,9.147,0,0,0,4.527-2.759,4.082,4.082,0,0,0,1.279-3.012c-.334-2.579-3.2-3.745-3.2-3.745s9.1-3.316,9.955-7.332-1.693-5.8-1.693-5.8,2.639-2.8-1.175-7.647-9.5.224-9.5.224-1.059-3.281-3.43-2.177c-1.676.779-3.437,3.489-4.8,6.407-.1-1.993-.654-4.2-2.4-5.384-3.661-2.473-5.838,1.485-5.838,1.485a4.727,4.727,0,0,0-6.568-1.644c-4.192,2.37-2.827,8.118-2.827,8.118s-3.15-1.58-4.572,3.392,3.154,9.772.491,17.211a24.075,24.075,0,0,1-1.447,3.186c-1.837,3.408-5.257,3.822-3.975,4.6s5.916.619,11.816.531S194.191,156.6,196.432,154.868Z" transform="translate(-167.521 -114.202)" fill="#82a334"/>
          <path id="패스_704" data-name="패스 704" d="M187.182,121.754s.678,14.083-4.622,20.7" transform="translate(-164.669 -112.77)" fill="none" stroke="#aec458" stroke-linecap="round" stroke-miterlimit="10" stroke-width="0.701"/>
          <path id="패스_705" data-name="패스 705" d="M190.953,124.011a16.568,16.568,0,0,1-5.325,9.258" transform="translate(-164.087 -112.342)" fill="none" stroke="#aec458" stroke-linecap="round" stroke-miterlimit="10" stroke-width="0.701"/>
          <path id="패스_706" data-name="패스 706" d="M194.692,136.377s-3.435,3.1-6.9,3.933" transform="translate(-163.677 -109.997)" fill="none" stroke="#aec458" stroke-linecap="round" stroke-miterlimit="10" stroke-width="0.701"/>
          <path id="패스_707" data-name="패스 707" d="M167.766,150.026a70.18,70.18,0,0,0,26.161-13.158c12.258-10.057,16.424-17.254,16.424-17.254" transform="translate(-167.474 -113.176)" fill="none" stroke="#aec458" stroke-linecap="round" stroke-miterlimit="10" stroke-width="0.701"/>
          <path id="패스_708" data-name="패스 708" d="M204.9,125.875s-5.472,3.657-9.179,3.5" transform="translate(-162.173 -111.988)" fill="none" stroke="#aec458" stroke-linecap="round" stroke-miterlimit="10" stroke-width="0.701"/>
          <path id="패스_709" data-name="패스 709" d="M193.481,123.751s-1.6,8.2-3.725,12.333" transform="translate(-163.304 -112.391)" fill="none" stroke="#aec458" stroke-linecap="round" stroke-miterlimit="10" stroke-width="0.701"/>
          <path id="패스_710" data-name="패스 710" d="M197.067,140.039a30.8,30.8,0,0,1-13.688-1.444" transform="translate(-164.513 -109.576)" fill="none" stroke="#aec458" stroke-linecap="round" stroke-miterlimit="10" stroke-width="0.701"/>
          <path id="패스_711" data-name="패스 711" d="M180.754,121.664s4.232,16.486-5.148,24.817" transform="translate(-165.988 -112.787)" fill="none" stroke="#aec458" stroke-linecap="round" stroke-miterlimit="10" stroke-width="0.701"/>
          <line id="선_39" data-name="선 39" x2="3.919" y2="8.623" transform="translate(10.67 17.026)" fill="none" stroke="#aec458" stroke-linecap="round" stroke-miterlimit="10" stroke-width="0.701"/>
          <path id="패스_712" data-name="패스 712" d="M192.274,145.751s-10.737-3.7-18.2-2.57" transform="translate(-166.279 -108.747)" fill="none" stroke="#aec458" stroke-linecap="round" stroke-miterlimit="10" stroke-width="0.701"/>
        </g>
        <g id="그룹_412" data-name="그룹 412">
          <path id="패스_713" data-name="패스 713" d="M175.634,153.6a32.029,32.029,0,0,1,9.769-6.447c5.886-2.436,8.719-5.343,8.818-7.207a4.2,4.2,0,0,0-1.627-3.168,2.991,2.991,0,0,0-.541-4.427c-2.589-1.969-5.759-.506-5.759-.506s3.55-6.436,7.465-9.145,8.554-7.043,9.02-9.985-3.46-3.075-3.46-3.075,3.772-7.816-2.729-10.477-8.743,1.108-8.743,1.108-2.754-2.231-6.887-.038-4.916,13.2-4.916,13.2-2.174-2.772-5.1-2.332-3.844,3.844-3.844,3.844-3.788-2.643-5.111,1.538S164,127.64,164,127.64s-3.286-1.649-4.479,1.349,6.289,11.135,8.04,17.625,3.024,11.616,4.28,12.777S172.475,156.676,175.634,153.6Z" transform="translate(-159.388 -98.209)" fill="#aec458"/>
          <path id="패스_714" data-name="패스 714" d="M173.753,112.222a4.657,4.657,0,0,0-2.328-2.091c-1.4-.381-2.071,1.686-.816,3.529a8.5,8.5,0,0,0,3.144,2.7A20.1,20.1,0,0,0,173.753,112.222Z" transform="translate(-157.386 -95.957)" fill="#fff" opacity="0.1"/>
          <path id="패스_715" data-name="패스 715" d="M191.643,102.224c2.116-.414,3.33,2.328,2.971,4.44a4.568,4.568,0,0,1-1.888,3.038s2.517-.3,2.922,1.456-2.427,1.708-5.753,1.708a63.078,63.078,0,0,0-7.908.719S189.527,102.636,191.643,102.224Z" transform="translate(-155.102 -97.456)" fill="#fff" opacity="0.1"/>
          <path id="패스_716" data-name="패스 716" d="M175.77,129.357s2.125-5.211,4.272-6.994,7.182-3.82,7.182-3.82-3.267,2.516-4.435,5.407S178.578,129.447,175.77,129.357Z" transform="translate(-156.281 -94.353)" fill="#fff" opacity="0.1"/>
          <path id="패스_717" data-name="패스 717" d="M183.647,137a38.047,38.047,0,0,0-6.54,0,14.459,14.459,0,0,0-3.874,1.621,14.332,14.332,0,0,1,3.683,1.139C178.717,140.629,183.454,139.19,183.647,137Z" transform="translate(-156.762 -90.882)" fill="#fff" opacity="0.1"/>
          <path id="패스_718" data-name="패스 718" d="M171.149,137.009a19.845,19.845,0,0,0,0-5.213c-.407-2.338-3.548-5.258-3.548-5.258a4.093,4.093,0,0,0-.184,3.55C168.226,132.066,171.149,137.009,171.149,137.009Z" transform="translate(-157.926 -92.836)" fill="#fff" opacity="0.1"/>
          <path id="패스_719" data-name="패스 719" d="M172.439,118.385s-2.325,4.735-2.147,8.792" transform="translate(-157.322 -94.383)" fill="none" stroke="#82a334" stroke-linecap="round" stroke-miterlimit="10" stroke-width="0.649"/>
          <path id="패스_720" data-name="패스 720" d="M170.546,158.384a79.955,79.955,0,0,1,6.223-32.774c7.18-16.577,13.757-23.393,13.757-23.393" transform="translate(-157.28 -97.449)" fill="none" stroke="#82a334" stroke-linecap="round" stroke-miterlimit="10" stroke-width="0.649"/>
          <path id="패스_721" data-name="패스 721" d="M180.737,104.318s-2.292,7.139-.96,11.149" transform="translate(-155.6 -97.05)" fill="none" stroke="#82a334" stroke-linecap="round" stroke-miterlimit="10" stroke-width="0.649"/>
          <path id="패스_722" data-name="패스 722" d="M188.114,115.205s-8.477,4.321-12.344,7.942" transform="translate(-156.281 -94.986)" fill="none" stroke="#82a334" stroke-linecap="round" stroke-miterlimit="10" stroke-width="0.649"/>
          <path id="패스_723" data-name="패스 723" d="M167.931,118.043a35.1,35.1,0,0,0,5.866,14.542" transform="translate(-157.768 -94.447)" fill="none" stroke="#82a334" stroke-linecap="round" stroke-miterlimit="10" stroke-width="0.649"/>
          <path id="패스_724" data-name="패스 724" d="M183.7,132.34s-10.4,3.479-12.706,9.127" transform="translate(-157.188 -91.736)" fill="none" stroke="#82a334" stroke-linecap="round" stroke-miterlimit="10" stroke-width="0.649"/>
          <line id="선_40" data-name="선 40" x1="7.733" y1="0.338" transform="translate(18.693 44.457)" fill="none" stroke="#82a334" stroke-linecap="round" stroke-miterlimit="10" stroke-width="0.649"/>
          <path id="패스_725" data-name="패스 725" d="M163.634,125.8s7.412,10.6,8.513,19.136" transform="translate(-158.583 -92.976)" fill="none" stroke="#82a334" stroke-linecap="round" stroke-miterlimit="10" stroke-width="0.649"/>
        </g>
      </g>
      <g id="그룹_414" data-name="그룹 414" transform="translate(49.472 100.491)">
        <path id="사각형_586" data-name="사각형 586" d="M1.343,0h.575a0,0,0,0,1,0,0V15.579a0,0,0,0,1,0,0H1.343A1.343,1.343,0,0,1,0,14.236V1.343A1.343,1.343,0,0,1,1.343,0Z" transform="translate(0.912 36.489) rotate(-17.234)" fill="#7397d0"/>
        <path id="사각형_587" data-name="사각형 587" d="M1.343,0h.575a0,0,0,0,1,0,0V15.58a0,0,0,0,1,0,0H1.343A1.343,1.343,0,0,1,0,14.237V1.343A1.343,1.343,0,0,1,1.343,0Z" transform="translate(92.894 24.247) rotate(162.739)" fill="#7397d0"/>
        <path id="패스_726" data-name="패스 726" d="M185.043,142.827l-11.919,3.7a4.26,4.26,0,0,0-2.947,4.724l.993,6.39a3.244,3.244,0,0,1-2.457,3.656h0a226.959,226.959,0,0,0-29.589,9.185h0a3.244,3.244,0,0,1-4.095-1.621l-2.8-5.829a4.261,4.261,0,0,0-5.1-2.225l-11.919,3.7c-4.666,1.448-6.77,2.676-5.971,5.249l9.44,30.409a3.619,3.619,0,0,0,2.872,2.5l.275.045a9.388,9.388,0,0,0,4.309-.3l12.686-3.939a4.26,4.26,0,0,0,2.948-4.724l-.995-6.39a3.246,3.246,0,0,1,2.458-3.656h0a227.016,227.016,0,0,0,29.589-9.185h0a3.244,3.244,0,0,1,4.095,1.621l2.8,5.829a4.261,4.261,0,0,0,5.1,2.225l12.686-3.938a9.392,9.392,0,0,0,3.721-2.195h0a4.072,4.072,0,0,0,1.07-4.145l-9.027-29.08C192.6,142.681,190.319,141.19,185.043,142.827Z" transform="translate(-109.069 -142.131)" fill="#9abad7"/>
        <path id="패스_727" data-name="패스 727" d="M166.611,148.681a4.252,4.252,0,0,0-.006,1.329l.993,6.39a3.244,3.244,0,0,1-2.457,3.656h0a226.959,226.959,0,0,0-29.589,9.185h0a3.244,3.244,0,0,1-4.095-1.621l-2.8-5.829a4.258,4.258,0,0,0-.759-1.092l10.287,33.137a4.251,4.251,0,0,0,.007-1.329l-.995-6.39a3.246,3.246,0,0,1,2.458-3.656h0a227.016,227.016,0,0,0,29.589-9.185h0a3.244,3.244,0,0,1,4.095,1.621l2.8,5.829a4.254,4.254,0,0,0,.758,1.092Z" transform="translate(-105.498 -140.889)" fill="#7397d0"/>
        <path id="패스_728" data-name="패스 728" d="M130.345,169.482c-5.056-1.2-14.26,2.9-15.933,5.213s-.377,7,2.1,7.59,16.756-3.852,17.3-7.271S132.954,170.1,130.345,169.482Z" transform="translate(-108.199 -136.985)" fill="#fff" opacity="0.2"/>
        <path id="패스_729" data-name="패스 729" d="M169.419,156.439c-4.973,1.544-4.283,7.353-1.453,8.769s15.1-2.775,16.8-5.311.209-7.332-4.072-6.958S172.819,155.384,169.419,156.439Z" transform="translate(-98.318 -140.086)" fill="#fff" opacity="0.2"/>
      </g>
      <g id="그룹_415" data-name="그룹 415" transform="translate(80.368 50.923)">
        <path id="패스_730" data-name="패스 730" d="M175.14,119.246c0-11.072-8.977-18.78-20.05-18.78s-20.049,7.708-20.049,18.78,8.977,18.186,20.049,18.186S175.14,130.319,175.14,119.246Z" transform="translate(-135.04 -100.466)" fill="#cd4233"/>
        <path id="패스_731" data-name="패스 731" d="M154.68,102.628a4.833,4.833,0,0,0-2.244.363,3.627,3.627,0,0,0-1.692,3.847,7.763,7.763,0,0,0,2.188,3.863,19.169,19.169,0,0,0,10.427,5.742,4.991,4.991,0,0,0,3.589-.346c3.37-2.133.88-6.57-1-8.57A17.121,17.121,0,0,0,154.68,102.628Z" transform="translate(-132.072 -100.056)" fill="#fff" opacity="0.2"/>
        <path id="패스_732" data-name="패스 732" d="M153.358,116.4a12.909,12.909,0,0,0-3.872-4.16,10.5,10.5,0,0,0-5.627-1.725,9.239,9.239,0,0,0,3.342,4.734c2.848,2.158,4.943,2.088,4.943,2.088a12.194,12.194,0,0,0-4.386,2.994,8,8,0,0,0-1.809,5.012,9.109,9.109,0,0,0,4.734-1.253c1.88-1.323,3.063-5.934,3.063-5.934s1.392,3.427,2.923,4.611,5.013,1.184,5.013,1.184a14.118,14.118,0,0,0-2.158-4.073c-1.532-1.983-5.013-3.028-5.013-3.028a10.153,10.153,0,0,0,4.665-1.67,7.71,7.71,0,0,0,2.507-4.108,9.1,9.1,0,0,0-5.1,1.13A6.528,6.528,0,0,0,153.358,116.4Z" transform="translate(-133.367 -98.56)" fill="#82a334"/>
        <path id="패스_733" data-name="패스 733" d="M140.609,122.387a1.756,1.756,0,0,0-1.282.617,1.379,1.379,0,0,0-.068,1.282,3.818,3.818,0,0,0,.771,1.085c1.756,1.913,3.849,3.691,6.387,4.238a1.8,1.8,0,0,0,1.342-.1,1.351,1.351,0,0,0,.51-1.343,3.614,3.614,0,0,0-.622-1.373C146.114,124.432,143.656,122.017,140.609,122.387Z" transform="translate(-134.264 -96.316)" fill="#fff" opacity="0.2"/>
      </g>
      <g id="그룹_416" data-name="그룹 416" transform="translate(68.857 35.849)">
        <path id="패스_734" data-name="패스 734" d="M128.417,93.017s-6.135,6.109-1.011,10.082,11.352-1.688,12.1-4.8S128.417,93.017,128.417,93.017Z" transform="translate(-125.364 -86.804)" fill="#25170f"/>
        <path id="패스_735" data-name="패스 735" d="M133.2,87.843a7.381,7.381,0,1,0,8.167,6.5A7.381,7.381,0,0,0,133.2,87.843Z" transform="translate(-125.12 -87.795)" fill="#7397d0"/>
        <path id="패스_736" data-name="패스 736" d="M131.949,90.926a1.762,1.762,0,0,0-1.5,1.284,2.38,2.38,0,1,0,3.621,2.883,2.821,2.821,0,0,0-2.121-4.166Z" transform="translate(-124.575 -87.203)" fill="#9abad7"/>
        <path id="패스_737" data-name="패스 737" d="M131.909,91.446a2.031,2.031,0,1,0,2.246,1.788A2.031,2.031,0,0,0,131.909,91.446Z" transform="translate(-124.464 -87.105)" fill="#25170f"/>
        <path id="패스_738" data-name="패스 738" d="M135.032,97.256c-1.746,1.7-2.327,3.15-.4,2.8s4.373-2.466,4.386-4.525S135.883,96.428,135.032,97.256Z" transform="translate(-123.834 -86.464)" fill="#fff" opacity="0.2"/>
        <path id="패스_739" data-name="패스 739" d="M128.218,91.186c-.553,1.224-.394,1.656,1.237.843s4.409-2.358,2.692-2.7S128.444,90.686,128.218,91.186Z" transform="translate(-124.877 -87.512)" fill="#fff" opacity="0.2"/>
      </g>
      <g id="그룹_417" data-name="그룹 417" transform="translate(18.489 85.561)">
        <path id="패스_740" data-name="패스 740" d="M86.079,134.961s-6.135,6.109-1.011,10.082,11.352-1.688,12.1-4.8S86.079,134.961,86.079,134.961Z" transform="translate(-83.026 -128.562)" fill="#25170f"/>
        <circle id="타원_530" data-name="타원 530" cx="7.381" cy="7.381" r="7.381" transform="translate(1.729)" fill="#7397d0"/>
        <path id="패스_741" data-name="패스 741" d="M94.759,135.289a1.767,1.767,0,0,0-1.105-1.637,1.764,1.764,0,0,0-3.273,0,1.763,1.763,0,0,0,0,3.273,1.763,1.763,0,0,0,3.273,0A1.764,1.764,0,0,0,94.759,135.289Z" transform="translate(-81.841 -129.02)" fill="#9abad7"/>
        <circle id="타원_531" data-name="타원 531" cx="2.031" cy="2.031" r="2.031" transform="translate(8.235 4.239)" fill="#25170f"/>
        <path id="패스_742" data-name="패스 742" d="M88.055,137.672c-1.489-1.927-2.867-2.668-2.734-.711s1.956,4.624,4,4.868S88.782,138.61,88.055,137.672Z" transform="translate(-82.592 -128.401)" fill="#fff" opacity="0.2"/>
        <path id="패스_743" data-name="패스 743" d="M94.51,131.551c-1.155-.689-1.6-.578-.979,1.134s1.845,4.647,2.379,2.979S94.98,131.832,94.51,131.551Z" transform="translate(-81.087 -129.284)" fill="#fff" opacity="0.2"/>
      </g>
      <g id="그룹_418" data-name="그룹 418" transform="translate(5.712 1.247)">
        <path id="패스_744" data-name="패스 744" d="M118.092,60.731a2.177,2.177,0,0,1-1.8-1.8.305.305,0,0,0-.588,0,2.177,2.177,0,0,1-1.8,1.8.305.305,0,0,0,0,.588,2.177,2.177,0,0,1,1.8,1.8.305.305,0,0,0,.588,0,2.177,2.177,0,0,1,1.8-1.8A.305.305,0,0,0,118.092,60.731Z" transform="translate(-64.434 -58.709)" fill="#25170f"/>
        <path id="패스_745" data-name="패스 745" d="M198.545,159.428a2.175,2.175,0,0,1-1.8-1.8.306.306,0,0,0-.589,0,2.177,2.177,0,0,1-1.8,1.8.306.306,0,0,0,0,.589,2.175,2.175,0,0,1,1.8,1.8.306.306,0,0,0,.589,0,2.172,2.172,0,0,1,1.8-1.8A.306.306,0,0,0,198.545,159.428Z" transform="translate(-49.176 -39.991)" fill="#25170f"/>
        <path id="패스_746" data-name="패스 746" d="M76.695,135.8a2.173,2.173,0,0,1-1.8-1.8.306.306,0,0,0-.589,0,2.175,2.175,0,0,1-1.8,1.8.306.306,0,0,0,0,.589,2.177,2.177,0,0,1,1.8,1.8.306.306,0,0,0,.589,0,2.176,2.176,0,0,1,1.8-1.8A.306.306,0,0,0,76.695,135.8Z" transform="translate(-72.285 -44.473)" fill="#25170f"/>
        <path id="패스_747" data-name="패스 747" d="M201.551,93.927a2.175,2.175,0,0,1-1.8-1.8.306.306,0,0,0-.589,0,2.176,2.176,0,0,1-1.8,1.8.306.306,0,0,0,0,.589,2.176,2.176,0,0,1,1.8,1.8.306.306,0,0,0,.589,0,2.175,2.175,0,0,1,1.8-1.8A.306.306,0,0,0,201.551,93.927Z" transform="translate(-48.606 -52.413)" fill="#25170f"/>
        <path id="패스_748" data-name="패스 748" d="M97.409,179.9a2.177,2.177,0,0,1-1.8-1.8.305.305,0,0,0-.588,0,2.177,2.177,0,0,1-1.8,1.8.305.305,0,0,0,0,.588,2.177,2.177,0,0,1,1.8,1.8.305.305,0,0,0,.588,0,2.177,2.177,0,0,1,1.8-1.8A.305.305,0,0,0,97.409,179.9Z" transform="translate(-68.357 -36.108)" fill="#25170f"/>
      </g>
    </g>
  </g>
</svg>
