<svg xmlns="http://www.w3.org/2000/svg" width="276" height="276" viewBox="0 0 276 276">
  <g id="그룹_716" data-name="그룹 716" transform="translate(-823 -860)">
    <path id="패스_945" data-name="패스 945" d="M138,0A138,138,0,1,1,0,138,138,138,0,0,1,138,0Z" transform="translate(823 860)" fill="#ffd675"/>
    <g id="그룹_459" data-name="그룹 459" transform="translate(868 914)">
      <g id="그룹_458" data-name="그룹 458" transform="translate(0 0)">
        <g id="그룹_453" data-name="그룹 453" transform="translate(0 7.249)">
          <g id="그룹_440" data-name="그룹 440" transform="translate(107.723 53.283)">
            <path id="패스_870" data-name="패스 870" d="M449.931,394.693l-6.412,6.5s2.4,4.387,0,7.2-11.734,8.338-14.844,8.338,1.321,4.9.5,5.949-1.394,3.743-7.516,1.578-23.08-2.048-23.08-2.048a6.935,6.935,0,0,1-5.3-3.541c-2.113-3.454-5.6-14.5-10.176-20.693s-2.352-8.641,1.573-8.758S449.931,394.693,449.931,394.693Z" transform="translate(-380.375 -345.229)" fill="#25170f"/>
            <g id="그룹_438" data-name="그룹 438" transform="translate(12.549 24.676)">
              <path id="패스_871" data-name="패스 871" d="M428.347,425.892c2.907-2.245-1.633-7.925-1.633-7.925l10.113-2.693A11.863,11.863,0,0,0,442.7,411.7a5.3,5.3,0,0,0,1.66-3.907c-.434-3.345-4.149-4.857-4.149-4.857s11.8-4.3,12.911-9.51-2.2-7.527-2.2-7.527,3.423-3.633-1.523-9.918-12.322.291-12.322.291-1.374-4.256-4.448-2.824c-2.175,1.012-4.458,4.525-6.224,8.311-.132-2.584-.85-5.453-3.114-6.983-4.747-3.209-7.57,1.924-7.57,1.924s-3.083-5.2-8.52-2.131-3.664,10.528-3.664,10.528-4.086-2.049-5.93,4.4,4.091,12.675.636,22.322a31.328,31.328,0,0,1-1.875,4.133c-2.383,4.42-6.819,4.958-5.156,5.97s7.674.8,15.326.689S425.438,428.137,428.347,425.892Z" transform="translate(-390.848 -373.149)" fill="#82a334"/>
              <path id="패스_872" data-name="패스 872" d="M416.151,382.844s.88,18.266-5.994,26.843" transform="translate(-386.951 -371.192)" fill="none" stroke="#aec458" stroke-linecap="round" stroke-miterlimit="10" stroke-width="0.9"/>
              <path id="패스_873" data-name="패스 873" d="M421,385.743s-.74,6.284-6.906,12.006" transform="translate(-386.156 -370.607)" fill="none" stroke="#aec458" stroke-linecap="round" stroke-miterlimit="10" stroke-width="0.9"/>
              <path id="패스_874" data-name="패스 874" d="M425.824,401.618s-4.455,4.026-8.952,5.1" transform="translate(-385.595 -367.403)" fill="none" stroke="#aec458" stroke-linecap="round" stroke-miterlimit="10" stroke-width="0.9"/>
              <path id="패스_875" data-name="패스 875" d="M391.163,419.542a91.043,91.043,0,0,0,33.929-17.066c15.9-13.045,21.3-22.377,21.3-22.377" transform="translate(-390.784 -371.746)" fill="none" stroke="#aec458" stroke-linecap="round" stroke-miterlimit="10" stroke-width="0.9"/>
              <path id="패스_876" data-name="패스 876" d="M438.953,388.135s-7.1,4.742-11.905,4.539" transform="translate(-383.541 -370.125)" fill="none" stroke="#aec458" stroke-linecap="round" stroke-miterlimit="10" stroke-width="0.9"/>
              <path id="패스_877" data-name="패스 877" d="M424.227,385.408s-2.078,10.631-4.833,16" transform="translate(-385.086 -370.675)" fill="none" stroke="#aec458" stroke-linecap="round" stroke-miterlimit="10" stroke-width="0.9"/>
              <path id="패스_878" data-name="패스 878" d="M428.961,406.338a39.958,39.958,0,0,1-17.754-1.872" transform="translate(-386.739 -366.828)" fill="none" stroke="#aec458" stroke-linecap="round" stroke-miterlimit="10" stroke-width="0.9"/>
              <path id="패스_879" data-name="패스 879" d="M407.9,382.73s5.49,21.382-6.676,32.188" transform="translate(-388.753 -371.215)" fill="none" stroke="#aec458" stroke-linecap="round" stroke-miterlimit="10" stroke-width="0.9"/>
              <line id="선_44" data-name="선 44" x2="5.082" y2="11.183" transform="translate(13.84 22.082)" fill="none" stroke="#aec458" stroke-linecap="round" stroke-miterlimit="10" stroke-width="0.9"/>
              <path id="패스_880" data-name="패스 880" d="M422.867,413.689s-13.924-4.8-23.61-3.333" transform="translate(-389.151 -365.695)" fill="none" stroke="#aec458" stroke-linecap="round" stroke-miterlimit="10" stroke-width="0.9"/>
            </g>
            <g id="그룹_439" data-name="그룹 439">
              <path id="패스_881" data-name="패스 881" d="M401.479,424.453a41.517,41.517,0,0,1,12.671-8.362c7.634-3.161,11.307-6.93,11.437-9.348s-2.113-4.109-2.113-4.109,2.657-3.187-.7-5.741-7.471-.654-7.471-.654,4.6-8.349,9.683-11.862,11.093-9.134,11.7-12.95-4.485-3.989-4.485-3.989,4.892-10.137-3.539-13.588-11.342,1.436-11.342,1.436-3.571-2.893-8.931-.049-6.376,17.119-6.376,17.119-2.818-3.6-6.618-3.024-4.985,4.984-4.985,4.984-4.913-3.428-6.629,2,2.606,14.475,2.606,14.475-4.26-2.138-5.81,1.75S388.73,406.98,391,415.4s3.922,15.066,5.551,16.572S397.382,428.446,401.479,424.453Z" transform="translate(-380.406 -352.617)" fill="#db6349"/>
              <path id="패스_882" data-name="패스 882" d="M398.9,370.635s-1.2-2.22-3.02-2.713-2.686,2.187-1.058,4.578A11.029,11.029,0,0,0,398.9,376,26.067,26.067,0,0,0,398.9,370.635Z" transform="translate(-377.671 -349.54)" fill="#fff" opacity="0.1"/>
              <path id="패스_883" data-name="패스 883" d="M421.945,357.771c2.745-.536,4.318,3.02,3.852,5.759a5.927,5.927,0,0,1-2.448,3.941s3.264-.385,3.789,1.888-3.148,2.215-7.461,2.215a81.745,81.745,0,0,0-10.256.933S419.2,358.307,421.945,357.771Z" transform="translate(-374.55 -351.588)" fill="#fff" opacity="0.1"/>
              <path id="패스_884" data-name="패스 884" d="M401.439,392.749s2.755-6.759,5.542-9.073,9.314-4.954,9.314-4.954-4.238,3.264-5.752,7.013S405.081,392.865,401.439,392.749Z" transform="translate(-376.161 -347.348)" fill="#fff" opacity="0.1"/>
              <path id="패스_885" data-name="패스 885" d="M411.689,402.424s-6.139-.466-8.483,0a18.8,18.8,0,0,0-5.024,2.1A18.6,18.6,0,0,1,402.96,406C405.294,407.125,411.438,405.26,411.689,402.424Z" transform="translate(-376.818 -342.606)" fill="#fff" opacity="0.1"/>
              <path id="패스_886" data-name="패스 886" d="M395.559,402.568a25.685,25.685,0,0,0,0-6.762c-.528-3.031-4.6-6.819-4.6-6.819a5.308,5.308,0,0,0-.239,4.6C391.767,396.156,395.559,402.568,395.559,402.568Z" transform="translate(-378.408 -345.276)" fill="#fff" opacity="0.1"/>
              <path id="패스_887" data-name="패스 887" d="M397.191,378.519s-3.015,6.141-2.785,11.4" transform="translate(-377.583 -347.389)" fill="none" stroke="#945c3c" stroke-linecap="round" stroke-miterlimit="10" stroke-width="0.833"/>
              <path id="패스_888" data-name="패스 888" d="M394.732,430.61A103.709,103.709,0,0,1,402.8,388.1c9.312-21.5,17.844-30.34,17.844-30.34" transform="translate(-377.526 -351.579)" fill="none" stroke="#945c3c" stroke-linecap="round" stroke-miterlimit="10" stroke-width="0.833"/>
              <path id="패스_889" data-name="패스 889" d="M407.834,360.46s-2.972,9.259-1.244,14.46" transform="translate(-375.231 -351.034)" fill="none" stroke="#945c3c" stroke-linecap="round" stroke-miterlimit="10" stroke-width="0.833"/>
              <path id="패스_890" data-name="패스 890" d="M417.45,374.436s-11,5.605-16.011,10.3" transform="translate(-376.161 -348.213)" fill="none" stroke="#945c3c" stroke-linecap="round" stroke-miterlimit="10" stroke-width="0.833"/>
              <path id="패스_891" data-name="패스 891" d="M391.375,378.081a45.514,45.514,0,0,0,7.609,18.86" transform="translate(-378.193 -347.478)" fill="none" stroke="#945c3c" stroke-linecap="round" stroke-miterlimit="10" stroke-width="0.833"/>
              <path id="패스_892" data-name="패스 892" d="M411.781,396.436s-13.492,4.51-16.478,11.837" transform="translate(-377.4 -343.773)" fill="none" stroke="#945c3c" stroke-linecap="round" stroke-miterlimit="10" stroke-width="0.833"/>
              <line id="선_45" data-name="선 45" x1="10.029" y1="0.439" transform="translate(24.246 57.659)" fill="none" stroke="#945c3c" stroke-linecap="round" stroke-miterlimit="10" stroke-width="0.833"/>
              <path id="패스_893" data-name="패스 893" d="M385.859,388.043S395.47,401.8,396.9,412.862" transform="translate(-379.306 -345.467)" fill="none" stroke="#945c3c" stroke-linecap="round" stroke-miterlimit="10" stroke-width="0.833"/>
            </g>
          </g>
          <g id="그룹_444" data-name="그룹 444" transform="translate(34.356)">
            <rect id="사각형_588" data-name="사각형 588" width="100.266" height="141.313" rx="5.129" transform="translate(0 5.734)" fill="#25170f"/>
            <rect id="사각형_589" data-name="사각형 589" width="100.266" height="141.313" rx="5.129" transform="translate(1.868 3.69)" fill="#e8ab2d"/>
            <rect id="사각형_590" data-name="사각형 590" width="87.861" height="124.348" transform="translate(8.07 12.173)" fill="#fff"/>
            <g id="그룹_442" data-name="그룹 442" transform="translate(16.75 2.465)">
              <g id="그룹_441" data-name="그룹 441">
                <path id="패스_894" data-name="패스 894" d="M396.91,330.69H338.726a5.434,5.434,0,0,1-5.429-5.429v-9.5a5.434,5.434,0,0,1,5.429-5.429h1.727v4.095h-1.727a1.336,1.336,0,0,0-1.334,1.334v9.5a1.336,1.336,0,0,0,1.334,1.334H396.91a1.336,1.336,0,0,0,1.334-1.334v-9.5a1.336,1.336,0,0,0-1.334-1.334h-1.874v-4.095h1.874a5.434,5.434,0,0,1,5.429,5.429v9.5A5.434,5.434,0,0,1,396.91,330.69Z" transform="translate(-333.297 -310.333)" fill="#25170f"/>
              </g>
            </g>
            <path id="패스_895" data-name="패스 895" d="M394.143,308.965H341.687A3.691,3.691,0,0,0,338,312.656h0a3.691,3.691,0,0,0,3.691,3.691h52.456a3.691,3.691,0,0,0,3.691-3.691h0A3.691,3.691,0,0,0,394.143,308.965Z" transform="translate(-315.599 -308.144)" fill="#25170f"/>
            <g id="그룹_443" data-name="그룹 443" transform="translate(17.479 1.643)">
              <path id="패스_896" data-name="패스 896" d="M397.517,330.006H339.333a5.434,5.434,0,0,1-5.429-5.429v-9.5a5.434,5.434,0,0,1,5.429-5.429h1.727v4.095h-1.727A1.336,1.336,0,0,0,338,315.078v9.5a1.336,1.336,0,0,0,1.334,1.334h58.184a1.336,1.336,0,0,0,1.334-1.334v-9.5a1.336,1.336,0,0,0-1.334-1.334h-1.874v-4.095h1.874a5.434,5.434,0,0,1,5.429,5.429v9.5A5.434,5.434,0,0,1,397.517,330.006Z" transform="translate(-333.904 -309.649)" fill="#9abad7"/>
            </g>
            <path id="패스_897" data-name="패스 897" d="M394.752,308.282H342.294a3.691,3.691,0,0,0-3.691,3.691h0a3.69,3.69,0,0,0,3.691,3.69h52.458a3.689,3.689,0,0,0,3.69-3.69h0A3.69,3.69,0,0,0,394.752,308.282Z" transform="translate(-315.476 -308.282)" fill="#9abad7"/>
            <path id="패스_898" data-name="패스 898" d="M396.792,309.576h-56.54a1.649,1.649,0,0,0-1.649,1.649h0a1.649,1.649,0,0,0,1.649,1.649h56.54a1.648,1.648,0,0,0,1.649-1.649h0A1.648,1.648,0,0,0,396.792,309.576Z" transform="translate(-315.476 -308.021)" fill="#fff" opacity="0.4"/>
            <path id="패스_899" data-name="패스 899" d="M394.025,323.7H341.982a.808.808,0,0,0-.809.809h0a.808.808,0,0,0,.809.808h52.043a.808.808,0,0,0,.809-.808h0A.808.808,0,0,0,394.025,323.7Z" transform="translate(-314.957 -305.171)" fill="#fff" opacity="0.2"/>
          </g>
          <g id="그룹_447" data-name="그룹 447" transform="translate(112.289 80.504)">
            <g id="그룹_445" data-name="그룹 445">
              <path id="패스_900" data-name="패스 900" d="M413.929,426.52a21.422,21.422,0,0,1-19.412,7.155c-12.26-1.947-11.637-15.744-8.047-22.605S413.929,426.52,413.929,426.52Z" transform="translate(-384.205 -368.305)" fill="#25170f"/>
              <rect id="사각형_591" data-name="사각형 591" width="46.512" height="10.508" transform="translate(46.881 9.701) rotate(135)" fill="#f1d04c"/>
              <rect id="사각형_592" data-name="사각형 592" width="7.151" height="12.406" rx="0.85" transform="translate(49.152 8.772) rotate(135)" fill="#fff"/>
              <rect id="사각형_593" data-name="사각형 593" width="1.459" height="7.589" transform="translate(39.395 13.059) rotate(135)" fill="#25170f"/>
              <rect id="사각형_594" data-name="사각형 594" width="1.459" height="3.795" transform="translate(33.513 13.575) rotate(135)" fill="#25170f"/>
              <rect id="사각형_595" data-name="사각형 595" width="1.459" height="3.795" transform="translate(30.314 16.774) rotate(135)" fill="#25170f"/>
              <rect id="사각형_596" data-name="사각형 596" width="1.459" height="3.795" transform="translate(27.114 19.973) rotate(135.001)" fill="#25170f"/>
              <rect id="사각형_597" data-name="사각형 597" width="1.459" height="3.795" transform="translate(23.915 23.173) rotate(135.001)" fill="#25170f"/>
              <rect id="사각형_598" data-name="사각형 598" width="1.459" height="7.589" transform="translate(23.399 29.055) rotate(134.999)" fill="#25170f"/>
              <rect id="사각형_599" data-name="사각형 599" width="1.459" height="3.795" transform="translate(17.517 29.571) rotate(135)" fill="#25170f"/>
              <rect id="사각형_600" data-name="사각형 600" width="1.459" height="3.795" transform="translate(14.317 32.77) rotate(135)" fill="#25170f"/>
              <rect id="사각형_601" data-name="사각형 601" width="1.459" height="3.795" transform="translate(11.118 35.97) rotate(135)" fill="#25170f"/>
            </g>
            <circle id="타원_547" data-name="타원 547" cx="16.346" cy="16.346" r="16.346" transform="translate(1.791 30.339)" fill="#f1d04c"/>
            <path id="패스_901" data-name="패스 901" d="M403.875,414.771a3.92,3.92,0,1,0-3.92,3.92A3.921,3.921,0,0,0,403.875,414.771Z" transform="translate(-381.818 -368.085)" fill="#25170f"/>
            <g id="그룹_446" data-name="그룹 446" transform="translate(1.126 29.674)">
              <path id="패스_902" data-name="패스 902" d="M405.782,415.045a5.554,5.554,0,1,0-5.554,5.554A5.554,5.554,0,0,0,405.782,415.045Z" transform="translate(-383.218 -398.033)" fill="none" stroke="#945c3c" stroke-miterlimit="10" stroke-width="0.341"/>
              <path id="패스_903" data-name="패스 903" d="M407.642,415.312a7.146,7.146,0,1,0-7.146,7.146A7.146,7.146,0,0,0,407.642,415.312Z" transform="translate(-383.485 -398.301)" fill="none" stroke="#945c3c" stroke-miterlimit="10" stroke-width="0.341"/>
              <circle id="타원_548" data-name="타원 548" cx="8.739" cy="8.739" r="8.739" transform="matrix(0.987, -0.16, 0.16, 0.987, 6.988, 9.781)" fill="none" stroke="#945c3c" stroke-miterlimit="10" stroke-width="0.341"/>
              <circle id="타원_549" data-name="타원 549" cx="10.332" cy="10.332" r="10.332" transform="matrix(0.987, -0.16, 0.16, 0.987, 5.162, 8.463)" fill="none" stroke="#945c3c" stroke-miterlimit="10" stroke-width="0.341"/>
              <circle id="타원_550" data-name="타원 550" cx="11.924" cy="11.924" r="11.924" transform="translate(3.231 7.291) rotate(-9.801)" fill="none" stroke="#945c3c" stroke-miterlimit="10" stroke-width="0.341"/>
              <circle id="타원_551" data-name="타원 551" cx="13.517" cy="13.517" r="13.517" transform="translate(1.51 5.825) rotate(-9.185)" fill="none" stroke="#945c3c" stroke-miterlimit="10" stroke-width="0.341"/>
              <circle id="타원_552" data-name="타원 552" cx="15.11" cy="15.11" r="15.11" transform="matrix(0.991, -0.135, 0.135, 0.991, 0, 4.08)" fill="none" stroke="#945c3c" stroke-miterlimit="10" stroke-width="0.341"/>
            </g>
          </g>
          <g id="그룹_449" data-name="그룹 449" transform="translate(0.139 81.55)">
            <path id="패스_904" data-name="패스 904" d="M338.728,445.46c-1.6.375-10.38-5.76-11.717-8.527s3.825-5.853,3.633-8.472-7.591-8.4-10.95-11.812-6.628-6.852-8.891-6.167-5.019,4.34-8.072,3.024-13.1-8.157-11.712-13.247,8.129-11.308,11.838-15.325,7.8-1.566,11.05.928-.665,4.5,5.8,13.744,13.973,16.357,16.839,15.626,2.848-2.5,5.125-2.37,4.776,1.866,7.2,3.833,7.378,5.764,7.217,8.2S340.332,445.085,338.728,445.46Z" transform="translate(-290.89 -374.79)" fill="#25170f"/>
            <g id="그룹_448" data-name="그룹 448" transform="translate(2.603)">
              <path id="사각형_602" data-name="사각형 602" d="M.991,0h.438a0,0,0,0,1,0,0V11.613a0,0,0,0,1,0,0H.991A.991.991,0,0,1,0,10.622V.991A.991.991,0,0,1,.991,0Z" transform="matrix(0.759, 0.651, -0.651, 0.759, 10.799, 4.753)" fill="#7397d0"/>
              <path id="사각형_603" data-name="사각형 603" d="M.991,0h.438a0,0,0,0,1,0,0V11.613a0,0,0,0,1,0,0H.991A.991.991,0,0,1,0,10.622V.991A.991.991,0,0,1,.991,0Z" transform="translate(55.007 57.954) rotate(-139.399)" fill="#7397d0"/>
              <path id="패스_905" data-name="패스 905" d="M356.217,414.071l-7.063-6.055a3.178,3.178,0,0,0-4.151.013l-3.638,3.162a2.419,2.419,0,0,1-3.282-.1h0a169.226,169.226,0,0,0-17.532-15.031h0a2.418,2.418,0,0,1-.6-3.228l2.568-4.079a3.175,3.175,0,0,0-.62-4.1l-7.062-6.055c-2.764-2.37-4.373-3.212-5.681-1.687l-15.45,18.019a2.7,2.7,0,0,0-.439,2.8l.081.191a7.02,7.02,0,0,0,1.9,2.6l7.517,6.445a3.176,3.176,0,0,0,4.151-.013l3.639-3.162a2.418,2.418,0,0,1,3.281.1h0a169.482,169.482,0,0,0,17.532,15.031h0a2.42,2.42,0,0,1,.6,3.228l-2.57,4.079a3.177,3.177,0,0,0,.62,4.1l7.517,6.445a7.014,7.014,0,0,0,2.86,1.478h0a3.036,3.036,0,0,0,3.041-.969l14.774-17.232C359.306,418.781,359.343,416.751,356.217,414.071Z" transform="translate(-293.055 -376.136)" fill="#9abad7"/>
              <path id="패스_906" data-name="패스 906" d="M343.66,405.541a3.154,3.154,0,0,0-.843.523l-3.638,3.162a2.419,2.419,0,0,1-3.282-.1h0a169.226,169.226,0,0,0-17.532-15.031h0a2.418,2.418,0,0,1-.6-3.228l2.568-4.079a3.188,3.188,0,0,0,.389-.911l-16.835,19.634a3.166,3.166,0,0,0,.841-.523l3.639-3.162a2.418,2.418,0,0,1,3.281.1h0a169.486,169.486,0,0,0,17.532,15.031h0a2.42,2.42,0,0,1,.6,3.228l-2.57,4.079a3.146,3.146,0,0,0-.388.912Z" transform="translate(-290.869 -374.171)" fill="#7397d0"/>
              <path id="패스_907" data-name="패스 907" d="M313.439,391.268c-1.247-3.667-7.487-7.848-9.609-7.989s-4.566,2.536-3.959,4.335,9.077,9.049,11.451,8.037S314.084,393.161,313.439,391.268Z" transform="translate(-291.698 -374.696)" fill="#fff" opacity="0.2"/>
              <path id="패스_908" data-name="패스 908" d="M336.807,410.478a3.616,3.616,0,0,0-6.111,2.561c.228,2.347,7.742,8.43,10.015,8.5s4.711-2.775,2.777-5.33S338.821,412.205,336.807,410.478Z" transform="translate(-285.46 -369.408)" fill="#fff" opacity="0.2"/>
            </g>
          </g>
          <g id="그룹_450" data-name="그룹 450" transform="translate(0 25.878)">
            <path id="패스_909" data-name="패스 909" d="M311.365,336.343s-15.179,5.936-19.482,14.268c-5.031,9.744,7.838,28.24,22.724,22.723a25.363,25.363,0,0,0,16.508-19.574Z" transform="translate(-290.774 -328.496)" fill="#25170f"/>
            <path id="패스_910" data-name="패스 910" d="M329.348,361.839c8.338-8.337,8.51-17.3.172-25.636s-17.737-8.605-26.075-.267-7.753,17.419.585,25.758S321.009,370.178,329.348,361.839Z" transform="translate(-289.421 -329.814)" fill="#cd4233"/>
            <path id="패스_911" data-name="패스 911" d="M325.246,337.158c-3.358-4.2-7.151-5.393-10.289-4.961s.049,4.309,3.66,7.037c4.732,3.575,6.312,11.721,9.171,9.312S327.289,339.713,325.246,337.158Z" transform="translate(-286.15 -329.35)" fill="#fff" opacity="0.2"/>
            <path id="패스_912" data-name="패스 912" d="M309.689,350.45c-2.638-2.779-1.568-5.877-2.493-7.773s-4.233-1.221-3.7,3.428,2.774,10.194,9.438,11.6c6.521,1.38,8.449-1.947,7.533-4.038S313.765,354.741,309.689,350.45Z" transform="translate(-288.217 -327.417)" fill="#fff" opacity="0.2"/>
            <path id="패스_913" data-name="패스 913" d="M317.258,346.268a3.327,3.327,0,1,0-3.327,3.327A3.326,3.326,0,0,0,317.258,346.268Z" transform="translate(-286.771 -327.165)" fill="#945c3c"/>
            <path id="패스_914" data-name="패스 914" d="M313.3,346.667a18.713,18.713,0,0,1,1.778-3.947,11.958,11.958,0,0,1,1.666-2,1.02,1.02,0,0,1,1.56.15h0a1.016,1.016,0,0,1-.189,1.354,15.579,15.579,0,0,0-2.767,2.844c-1.183,1.751-1.548,2.215-1.548,2.215A.438.438,0,0,1,313.3,346.667Z" transform="translate(-286.233 -327.673)" fill="#25170f"/>
          </g>
          <g id="그룹_452" data-name="그룹 452" transform="translate(124.115 8.463)">
            <path id="패스_915" data-name="패스 915" d="M401.37,325.379s-9.65,10.246-6.8,22.01,20.309,15.834,32.432-.3S401.37,325.379,401.37,325.379Z" transform="translate(-394.045 -313.294)" fill="#25170f"/>
            <circle id="타원_553" data-name="타원 553" cx="18.206" cy="18.206" r="18.206" transform="translate(4.193 2.315)" fill="#fff"/>
            <circle id="타원_554" data-name="타원 554" cx="15.075" cy="15.075" r="15.075" transform="translate(1.878 26.298) rotate(-60.723)" fill="#9abad7"/>
            <path id="패스_916" data-name="패스 916" d="M426.663,343.717a15.071,15.071,0,0,0-22.579-19.757c.274-.067,10.131-2.408,17.213,5.458C428.33,337.229,426.733,343.46,426.663,343.717Z" transform="translate(-392.019 -314.409)" fill="#7397d0"/>
            <circle id="타원_555" data-name="타원 555" cx="13.642" cy="13.642" r="13.642" transform="translate(3.106 20.521) rotate(-45)" fill="#f1d04c"/>
            <g id="그룹_451" data-name="그룹 451" transform="translate(9.696 8.806)">
              <path id="패스_917" data-name="패스 917" d="M412.114,325.758a.985.985,0,1,0-.985.986A.985.985,0,0,0,412.114,325.758Z" transform="translate(-400.492 -322.222)" fill="#e8ab2d"/>
              <path id="패스_918" data-name="패스 918" d="M416,336.836a.985.985,0,1,0-.984.984A.985.985,0,0,0,416,336.836Z" transform="translate(-399.708 -319.986)" fill="#e8ab2d"/>
              <path id="패스_919" data-name="패스 919" d="M418.068,327.978a.985.985,0,1,0-.984.985A.985.985,0,0,0,418.068,327.978Z" transform="translate(-399.29 -321.774)" fill="#e8ab2d"/>
              <path id="패스_920" data-name="패스 920" d="M409.7,340.549a.985.985,0,1,0-.986.986A.985.985,0,0,0,409.7,340.549Z" transform="translate(-400.979 -319.236)" fill="#e8ab2d"/>
              <path id="패스_921" data-name="패스 921" d="M407.853,332.879a.985.985,0,1,0-.986.985A.985.985,0,0,0,407.853,332.879Z" transform="translate(-401.352 -320.785)" fill="#e8ab2d"/>
              <path id="패스_922" data-name="패스 922" d="M407.7,331.831a.531.531,0,1,0-.531.531A.531.531,0,0,0,407.7,331.831Z" transform="translate(-401.199 -320.905)" fill="#e8ab2d"/>
              <circle id="타원_556" data-name="타원 556" cx="0.531" cy="0.531" r="0.531" transform="translate(13.606 16.849)" fill="#e8ab2d"/>
              <path id="패스_923" data-name="패스 923" d="M413.865,331.707a.531.531,0,1,0-.531.531A.531.531,0,0,0,413.865,331.707Z" transform="translate(-399.955 -320.93)" fill="#e8ab2d"/>
              <circle id="타원_557" data-name="타원 557" cx="0.531" cy="0.531" r="0.531" transform="translate(0 14.946)" fill="#e8ab2d"/>
              <circle id="타원_558" data-name="타원 558" cx="0.531" cy="0.531" r="0.531" transform="translate(0.531 10.045)" fill="#e8ab2d"/>
              <circle id="타원_559" data-name="타원 559" cx="0.531" cy="0.531" r="0.531" transform="translate(4.531 17.812)" fill="#e8ab2d"/>
              <path id="패스_924" data-name="패스 924" d="M418.584,327.9a.531.531,0,1,0-.531.531A.531.531,0,0,0,418.584,327.9Z" transform="translate(-399.003 -321.698)" fill="#e8ab2d"/>
              <path id="패스_925" data-name="패스 925" d="M421.525,330.058a.532.532,0,1,0-.531.532A.531.531,0,0,0,421.525,330.058Z" transform="translate(-398.409 -321.262)" fill="#e8ab2d"/>
              <path id="패스_926" data-name="패스 926" d="M409.989,329.433a.531.531,0,1,0-.531.531A.532.532,0,0,0,409.989,329.433Z" transform="translate(-400.737 -321.389)" fill="#e8ab2d"/>
              <path id="패스_927" data-name="패스 927" d="M419.586,325.139a.532.532,0,1,0-.531.532A.531.531,0,0,0,419.586,325.139Z" transform="translate(-398.801 -322.255)" fill="#e8ab2d"/>
              <path id="패스_928" data-name="패스 928" d="M410.433,336.316a.532.532,0,1,0-.532.532A.532.532,0,0,0,410.433,336.316Z" transform="translate(-400.648 -319.999)" fill="#e8ab2d"/>
              <circle id="타원_560" data-name="타원 560" cx="0.531" cy="0.531" r="0.531" transform="translate(7.658 21.858)" fill="#e8ab2d"/>
              <circle id="타원_561" data-name="타원 561" cx="0.531" cy="0.531" r="0.531" transform="translate(14.773)" fill="#e8ab2d"/>
              <path id="패스_929" data-name="패스 929" d="M413.745,341.442a.531.531,0,1,0-.531.532A.531.531,0,0,0,413.745,341.442Z" transform="translate(-399.979 -318.965)" fill="#e8ab2d"/>
              <path id="패스_930" data-name="패스 930" d="M421.525,333.622a.532.532,0,1,0-.531.531A.532.532,0,0,0,421.525,333.622Z" transform="translate(-398.409 -320.543)" fill="#e8ab2d"/>
              <path id="패스_931" data-name="패스 931" d="M408.792,325.025a.531.531,0,1,0-.531.532A.531.531,0,0,0,408.792,325.025Z" transform="translate(-400.979 -322.278)" fill="#e8ab2d"/>
              <path id="패스_932" data-name="패스 932" d="M418.8,340.667a.532.532,0,1,0-.531.531A.531.531,0,0,0,418.8,340.667Z" transform="translate(-398.959 -319.121)" fill="#e8ab2d"/>
              <circle id="타원_562" data-name="타원 562" cx="0.531" cy="0.531" r="0.531" transform="translate(20.707 16.317)" fill="#e8ab2d"/>
              <path id="패스_933" data-name="패스 933" d="M417.16,332.36a.531.531,0,1,0-.531.531A.532.532,0,0,0,417.16,332.36Z" transform="translate(-399.29 -320.798)" fill="#e8ab2d"/>
              <path id="패스_934" data-name="패스 934" d="M405.858,327.158a.986.986,0,1,0-.986.986A.986.986,0,0,0,405.858,327.158Z" transform="translate(-401.755 -321.94)" fill="#e8ab2d"/>
              <path id="패스_935" data-name="패스 935" d="M420.935,333.7a.985.985,0,1,0-.986.984A.985.985,0,0,0,420.935,333.7Z" transform="translate(-398.711 -320.619)" fill="#e8ab2d"/>
            </g>
            <path id="패스_936" data-name="패스 936" d="M427.6,334.689a13.644,13.644,0,0,0-21.259-11.319,17.9,17.9,0,0,1,14.5,5.807c4.117,4.572,5.276,8.6,5.516,11.211A13.582,13.582,0,0,0,427.6,334.689Z" transform="translate(-391.563 -314.168)" fill="#e8ab2d"/>
          </g>
        </g>
        <g id="그룹_454" data-name="그룹 454" transform="translate(3.912)">
          <path id="패스_937" data-name="패스 937" d="M343.484,304.281a2.186,2.186,0,0,1-1.808-1.808.307.307,0,0,0-.591,0,2.186,2.186,0,0,1-1.808,1.808.306.306,0,0,0,0,.59,2.186,2.186,0,0,1,1.808,1.808.307.307,0,0,0,.591,0,2.186,2.186,0,0,1,1.808-1.808A.306.306,0,0,0,343.484,304.281Z" transform="translate(-284.941 -302.25)" fill="#fff"/>
          <path id="패스_938" data-name="패스 938" d="M381.118,439.575a2.183,2.183,0,0,1-1.806-1.808.308.308,0,0,0-.591,0,2.186,2.186,0,0,1-1.808,1.808.307.307,0,0,0,0,.591,2.187,2.187,0,0,1,1.808,1.808.307.307,0,0,0,.591,0,2.184,2.184,0,0,1,1.806-1.808A.307.307,0,0,0,381.118,439.575Z" transform="translate(-277.345 -274.943)" fill="#fff"/>
          <path id="패스_939" data-name="패스 939" d="M446.192,402.311a2.186,2.186,0,0,1-1.808-1.808.307.307,0,0,0-.59,0,2.186,2.186,0,0,1-1.808,1.808.307.307,0,0,0,0,.591,2.186,2.186,0,0,1,1.808,1.808.307.307,0,0,0,.59,0,2.186,2.186,0,0,1,1.808-1.808A.307.307,0,0,0,446.192,402.311Z" transform="translate(-264.211 -282.464)" fill="#25170f"/>
          <path id="패스_940" data-name="패스 940" d="M298.458,373.4a2.186,2.186,0,0,1-1.806-1.808.307.307,0,0,0-.591,0,2.187,2.187,0,0,1-1.808,1.808.307.307,0,0,0,0,.59,2.187,2.187,0,0,1,1.808,1.808.307.307,0,0,0,.591,0,2.186,2.186,0,0,1,1.806-1.808A.307.307,0,0,0,298.458,373.4Z" transform="translate(-294.029 -288.3)" fill="#fff"/>
          <path id="패스_941" data-name="패스 941" d="M428.39,354.182a2.184,2.184,0,0,1-1.808-1.808.308.308,0,0,0-.591,0,2.184,2.184,0,0,1-1.808,1.808.307.307,0,0,0,0,.591,2.186,2.186,0,0,1,1.808,1.808.307.307,0,0,0,.591,0,2.185,2.185,0,0,1,1.808-1.808A.308.308,0,0,0,428.39,354.182Z" transform="translate(-267.804 -292.178)" fill="#fff"/>
          <path id="패스_942" data-name="패스 942" d="M315.044,421.924a2.184,2.184,0,0,1-1.808-1.808.308.308,0,0,0-.591,0,2.184,2.184,0,0,1-1.808,1.808.308.308,0,0,0,0,.591,2.184,2.184,0,0,1,1.808,1.808.307.307,0,0,0,.591,0,2.184,2.184,0,0,1,1.808-1.808A.307.307,0,0,0,315.044,421.924Z" transform="translate(-290.681 -278.505)" fill="#fff"/>
        </g>
        <g id="그룹_457" data-name="그룹 457" transform="translate(52.764 40.396)">
          <rect id="사각형_604" data-name="사각형 604" width="10.735" height="10.736" transform="translate(0 56.14)" fill="none" stroke="#25170f" stroke-linejoin="round" stroke-width="0.681"/>
          <g id="그룹_455" data-name="그룹 455">
            <rect id="사각형_605" data-name="사각형 605" width="10.735" height="10.735" transform="translate(0 3.288)" fill="none" stroke="#25170f" stroke-linejoin="round" stroke-width="0.681"/>
            <path id="패스_943" data-name="패스 943" d="M336.076,342.39l3.536,3.536,10.064-10.064" transform="translate(-334.394 -335.862)" fill="none" stroke="#aec458" stroke-miterlimit="10" stroke-width="2.726"/>
          </g>
          <g id="그룹_456" data-name="그룹 456" transform="translate(0 30.05)">
            <rect id="사각형_606" data-name="사각형 606" width="10.735" height="10.735" transform="translate(0 2.348)" fill="none" stroke="#25170f" stroke-linejoin="round" stroke-width="0.681"/>
            <path id="패스_944" data-name="패스 944" d="M336.076,367.394l3.536,3.535,10.064-10.064" transform="translate(-334.394 -360.865)" fill="none" stroke="#aec458" stroke-miterlimit="10" stroke-width="2.726"/>
          </g>
        </g>
      </g>
    </g>
  </g>
</svg>
